<ttFont>
<head>
    <!-- Most of this table will be recalculated by the compiler -->
    <tableVersion value="1.0"/>
    <fontRevision value="1.0"/>
    <checkSumAdjustment value="0xacb013f6"/>
    <magicNumber value="0x5f0f3cf5"/>
    <flags value="00000000 00011111"/>
    <unitsPerEm value="1000"/>
    <created value="Mon Jun 29 22:52:19 2015"/>
    <modified value="Mon Jun 29 22:52:19 2015"/>
    <xMin value="-431"/>
    <yMin value="-250"/>
    <xMax value="999"/>
    <yMax value="750"/>
    <macStyle value="00000000 00000000"/>
    <lowestRecPPEM value="8"/>
    <fontDirectionHint value="2"/>
    <indexToLocFormat value="0"/>
    <glyphDataFormat value="0"/>
  </head>
    <TTGlyph name=".notdef" xMin="50" yMin="0" xMax="200" yMax="533">
      <contour>
        <pt x="50" y="0" on="1"/>
        <pt x="50" y="533" on="1"/>
        <pt x="200" y="533" on="1"/>
        <pt x="200" y="0" on="1"/>
      </contour>
      <contour>
        <pt x="100" y="50" on="1"/>
        <pt x="150" y="50" on="1"/>
        <pt x="150" y="483" on="1"/>
        <pt x="100" y="483" on="1"/>
      </contour>
    </TTGlyph>
    <TTGlyph name="A" xMin="28" yMin="0" xMax="638" yMax="694">
      <contour>
        <pt x="28" y="0" on="1"/>
        <pt x="280" y="693" on="1"/>
        <pt x="281" y="694" on="0"/>
        <pt x="333" y="694" on="1"/>
        <pt x="385" y="694" on="1"/>
        <pt x="511" y="349" on="1"/>
        <pt x="636" y="4" on="0"/>
        <pt x="638" y="2" on="1"/>
        <pt x="638" y="0" on="0"/>
        <pt x="584" y="0" on="1"/>
        <pt x="530" y="0" on="1"/>
        <pt x="464" y="183" on="1"/>
        <pt x="184" y="183" on="1"/>
        <pt x="183" y="181" on="1"/>
        <pt x="183" y="178" on="0"/>
        <pt x="123" y="12" on="0"/>
        <pt x="118" y="0" on="1"/>
      </contour>
      <contour>
        <pt x="342" y="537" on="1"/>
        <pt x="325" y="601" on="0"/>
        <pt x="324" y="611" on="1"/>
        <pt x="324" y="606" on="1"/>
        <pt x="315" y="553" on="0"/>
        <pt x="230" y="310" on="1"/>
        <pt x="225" y="298" on="0"/>
        <pt x="215" y="270" on="0"/>
        <pt x="212" y="263" on="1"/>
        <pt x="210" y="256" on="1"/>
        <pt x="210" y="254" on="0"/>
        <pt x="438" y="254" on="0"/>
        <pt x="438" y="255" on="1"/>
        <pt x="434" y="267" on="0"/>
        <pt x="429" y="281" on="1"/>
        <pt x="370" y="447" on="0"/>
      </contour>
    </TTGlyph>
    <TTGlyph name="B" xMin="90" yMin="0" xMax="610" yMax="694">
      <contour>
        <pt x="90" y="0" on="1"/>
        <pt x="90" y="694" on="1"/>
        <pt x="227" y="694" on="1"/>
        <pt x="373" y="693" on="0"/>
        <pt x="396" y="689" on="1"/>
        <pt x="508" y="668" on="0"/>
        <pt x="558" y="594" on="1"/>
        <pt x="583" y="555" on="0"/>
        <pt x="583" y="517" on="1"/>
        <pt x="583" y="493" on="0"/>
        <pt x="572" y="469" on="1"/>
        <pt x="536" y="398" on="0"/>
        <pt x="425" y="363" on="1"/>
        <pt x="430" y="363" on="0"/>
        <pt x="469" y="352" on="1"/>
        <pt x="577" y="313" on="0"/>
        <pt x="605" y="228" on="1"/>
        <pt x="610" y="208" on="0"/>
        <pt x="610" y="192" on="1"/>
        <pt x="610" y="157" on="0"/>
        <pt x="593" y="123" on="1"/>
        <pt x="572" y="80" on="0"/>
        <pt x="483" y="18" on="0"/>
        <pt x="426" y="7" on="1"/>
        <pt x="404" y="2" on="0"/>
        <pt x="370" y="1" on="0"/>
        <pt x="240" y="0" on="1"/>
      </contour>
      <contour>
        <pt x="347" y="621" on="1"/>
        <pt x="340" y="622" on="0"/>
        <pt x="262" y="623" on="1"/>
        <pt x="188" y="623" on="1"/>
        <pt x="188" y="399" on="1"/>
        <pt x="261" y="399" on="1"/>
        <pt x="344" y="400" on="0"/>
        <pt x="371" y="407" on="1"/>
        <pt x="447" y="424" on="0"/>
        <pt x="478" y="475" on="1"/>
        <pt x="490" y="496" on="0"/>
        <pt x="490" y="516" on="1"/>
        <pt x="490" y="566" on="0"/>
        <pt x="424" y="598" on="1"/>
        <pt x="395" y="613" on="0"/>
      </contour>
      <contour>
        <pt x="434" y="297" on="1"/>
        <pt x="400" y="314" on="0"/>
        <pt x="350" y="323" on="0"/>
        <pt x="302" y="323" on="1"/>
        <pt x="259" y="323" on="1"/>
        <pt x="188" y="323" on="1"/>
        <pt x="188" y="71" on="1"/>
        <pt x="274" y="71" on="1"/>
        <pt x="365" y="72" on="0"/>
        <pt x="388" y="77" on="1"/>
        <pt x="436" y="87" on="0"/>
        <pt x="504" y="139" on="0"/>
        <pt x="512" y="173" on="1"/>
        <pt x="514" y="183" on="0"/>
        <pt x="514" y="190" on="1"/>
        <pt x="514" y="231" on="0"/>
        <pt x="480" y="265" on="1"/>
        <pt x="462" y="283" on="0"/>
      </contour>
    </TTGlyph>
    <TTGlyph name="C" xMin="59" yMin="-11" xMax="587" yMax="705">
      <contour>
        <pt x="559" y="571" on="1"/>
        <pt x="516" y="599" on="0"/>
        <pt x="444" y="626" on="0"/>
        <pt x="392" y="626" on="1"/>
        <pt x="376" y="626" on="0"/>
        <pt x="369" y="625" on="1"/>
        <pt x="283" y="616" on="0"/>
        <pt x="224" y="538" on="1"/>
        <pt x="164" y="460" on="0"/>
        <pt x="164" y="347" on="1"/>
        <pt x="164" y="263" on="0"/>
        <pt x="197" y="200" on="1"/>
        <pt x="236" y="121" on="0"/>
        <pt x="306" y="88" on="1"/>
        <pt x="347" y="68" on="0"/>
        <pt x="397" y="68" on="1"/>
        <pt x="453" y="68" on="0"/>
        <pt x="522" y="90" on="0"/>
        <pt x="568" y="120" on="1"/>
        <pt x="581" y="129" on="1"/>
        <pt x="582" y="110" on="1"/>
        <pt x="584" y="91" on="0"/>
        <pt x="587" y="50" on="0"/>
        <pt x="587" y="42" on="0"/>
        <pt x="543" y="20" on="1"/>
        <pt x="480" y="-11" on="0"/>
        <pt x="396" y="-11" on="1"/>
        <pt x="226" y="-11" on="0"/>
        <pt x="128" y="128" on="1"/>
        <pt x="59" y="225" on="0"/>
        <pt x="59" y="347" on="1"/>
        <pt x="59" y="505" on="0"/>
        <pt x="169" y="613" on="1"/>
        <pt x="249" y="693" on="0"/>
        <pt x="362" y="704" on="1"/>
        <pt x="365" y="704" on="0"/>
        <pt x="385" y="705" on="0"/>
        <pt x="392" y="705" on="1"/>
        <pt x="471" y="705" on="0"/>
        <pt x="550" y="680" on="1"/>
        <pt x="577" y="670" on="0"/>
        <pt x="577" y="667" on="1"/>
      </contour>
    </TTGlyph>
    <TTGlyph name="D" xMin="88" yMin="0" xMax="666" yMax="694">
      <contour>
        <pt x="88" y="0" on="1"/>
        <pt x="88" y="694" on="1"/>
        <pt x="237" y="694" on="1"/>
        <pt x="386" y="693" on="0"/>
        <pt x="399" y="691" on="1"/>
        <pt x="510" y="672" on="0"/>
        <pt x="649" y="504" on="0"/>
        <pt x="664" y="386" on="1"/>
        <pt x="666" y="366" on="0"/>
        <pt x="666" y="343" on="1"/>
        <pt x="666" y="318" on="0"/>
        <pt x="664" y="302" on="1"/>
        <pt x="649" y="172" on="0"/>
        <pt x="564" y="86" on="1"/>
        <pt x="494" y="18" on="0"/>
        <pt x="400" y="3" on="1"/>
        <pt x="387" y="1" on="0"/>
        <pt x="237" y="0" on="1"/>
      </contour>
      <contour>
        <pt x="359" y="621" on="1"/>
        <pt x="348" y="623" on="0"/>
        <pt x="267" y="623" on="1"/>
        <pt x="189" y="623" on="1"/>
        <pt x="189" y="71" on="1"/>
        <pt x="267" y="71" on="1"/>
        <pt x="349" y="71" on="0"/>
        <pt x="356" y="72" on="1"/>
        <pt x="410" y="77" on="0"/>
        <pt x="499" y="136" on="0"/>
        <pt x="527" y="184" on="1"/>
        <pt x="565" y="251" on="0"/>
        <pt x="565" y="341" on="1"/>
        <pt x="565" y="433" on="0"/>
        <pt x="494" y="568" on="0"/>
        <pt x="431" y="600" on="1"/>
        <pt x="393" y="618" on="0"/>
      </contour>
    </TTGlyph>
    <TTGlyph name="Delta" xMin="42" yMin="0" xMax="790" yMax="694">
      <contour>
        <pt x="203" y="348" on="1"/>
        <pt x="362" y="694" on="1"/>
        <pt x="470" y="694" on="1"/>
        <pt x="629" y="348" on="1"/>
        <pt x="789" y="2" on="0"/>
        <pt x="790" y="1" on="1"/>
        <pt x="790" y="0" on="0"/>
        <pt x="42" y="0" on="0"/>
        <pt x="42" y="1" on="1"/>
        <pt x="43" y="2" on="0"/>
      </contour>
      <contour>
        <pt x="413" y="584" on="1"/>
        <pt x="411" y="590" on="0"/>
        <pt x="406" y="606" on="0"/>
        <pt x="405" y="610" on="1"/>
        <pt x="403" y="600" on="1"/>
        <pt x="388" y="544" on="0"/>
        <pt x="191" y="122" on="1"/>
        <pt x="180" y="99" on="1"/>
        <pt x="405" y="98" on="1"/>
        <pt x="630" y="98" on="1"/>
        <pt x="630" y="101" on="0"/>
        <pt x="600" y="163" on="1"/>
        <pt x="443" y="505" on="0"/>
      </contour>
    </TTGlyph>
    <TTGlyph name="E" xMin="86" yMin="0" xMax="554" yMax="691">
      <contour>
        <pt x="86" y="0" on="1"/>
        <pt x="86" y="691" on="1"/>
        <pt x="541" y="691" on="1"/>
        <pt x="541" y="611" on="1"/>
        <pt x="366" y="611" on="1"/>
        <pt x="190" y="612" on="1"/>
        <pt x="190" y="397" on="1"/>
        <pt x="513" y="397" on="1"/>
        <pt x="513" y="321" on="1"/>
        <pt x="190" y="321" on="1"/>
        <pt x="190" y="85" on="1"/>
        <pt x="372" y="85" on="1"/>
        <pt x="554" y="86" on="1"/>
        <pt x="554" y="0" on="1"/>
      </contour>
    </TTGlyph>
    <TTGlyph name="F" xMin="86" yMin="0" xMax="526" yMax="691">
      <contour>
        <pt x="86" y="0" on="1"/>
        <pt x="86" y="691" on="1"/>
        <pt x="526" y="691" on="1"/>
        <pt x="526" y="611" on="1"/>
        <pt x="358" y="611" on="1"/>
        <pt x="190" y="612" on="1"/>
        <pt x="190" y="384" on="1"/>
        <pt x="485" y="384" on="1"/>
        <pt x="485" y="308" on="1"/>
        <pt x="190" y="308" on="1"/>
        <pt x="190" y="0" on="1"/>
      </contour>
    </TTGlyph>
    <TTGlyph name="G" xMin="59" yMin="-11" xMax="599" yMax="704">
      <contour>
        <pt x="392" y="68" on="1"/>
        <pt x="440" y="68" on="0"/>
        <pt x="506" y="84" on="1"/>
        <pt x="506" y="223" on="1"/>
        <pt x="388" y="223" on="1"/>
        <pt x="388" y="299" on="1"/>
        <pt x="599" y="299" on="1"/>
        <pt x="599" y="38" on="1"/>
        <pt x="588" y="33" on="1"/>
        <pt x="493" y="-11" on="0"/>
        <pt x="393" y="-11" on="1"/>
        <pt x="348" y="-11" on="0"/>
        <pt x="301" y="2" on="1"/>
        <pt x="198" y="33" on="0"/>
        <pt x="59" y="221" on="0"/>
        <pt x="59" y="346" on="1"/>
        <pt x="59" y="462" on="0"/>
        <pt x="122" y="557" on="1"/>
        <pt x="171" y="630" on="0"/>
        <pt x="249" y="671" on="1"/>
        <pt x="315" y="704" on="0"/>
        <pt x="384" y="704" on="1"/>
        <pt x="474" y="704" on="0"/>
        <pt x="541" y="679" on="1"/>
        <pt x="590" y="656" on="1"/>
        <pt x="590" y="652" on="0"/>
        <pt x="574" y="558" on="0"/>
        <pt x="573" y="557" on="1"/>
        <pt x="569" y="560" on="0"/>
        <pt x="564" y="564" on="1"/>
        <pt x="490" y="626" on="0"/>
        <pt x="392" y="626" on="1"/>
        <pt x="377" y="626" on="0"/>
        <pt x="370" y="625" on="1"/>
        <pt x="282" y="615" on="0"/>
        <pt x="164" y="459" on="0"/>
        <pt x="164" y="347" on="1"/>
        <pt x="164" y="248" on="0"/>
        <pt x="257" y="102" on="0"/>
        <pt x="330" y="78" on="1"/>
        <pt x="360" y="68" on="0"/>
      </contour>
    </TTGlyph>
    <TTGlyph name="Gamma" xMin="87" yMin="0" xMax="499" yMax="691">
      <contour>
        <pt x="87" y="0" on="1"/>
        <pt x="87" y="691" on="1"/>
        <pt x="499" y="691" on="1"/>
        <pt x="499" y="611" on="1"/>
        <pt x="345" y="611" on="1"/>
        <pt x="191" y="612" on="1"/>
        <pt x="191" y="0" on="1"/>
      </contour>
    </TTGlyph>
    <TTGlyph name="H" xMin="86" yMin="0" xMax="621" yMax="694">
      <contour>
        <pt x="86" y="0" on="1"/>
        <pt x="86" y="694" on="1"/>
        <pt x="190" y="694" on="1"/>
        <pt x="190" y="399" on="1"/>
        <pt x="517" y="399" on="1"/>
        <pt x="517" y="694" on="1"/>
        <pt x="621" y="694" on="1"/>
        <pt x="621" y="0" on="1"/>
        <pt x="517" y="0" on="1"/>
        <pt x="517" y="323" on="1"/>
        <pt x="190" y="323" on="1"/>
        <pt x="190" y="0" on="1"/>
      </contour>
    </TTGlyph>
    <TTGlyph name="I" xMin="87" yMin="0" xMax="191" yMax="694">
      <contour>
        <pt x="87" y="0" on="1"/>
        <pt x="87" y="694" on="1"/>
        <pt x="191" y="694" on="1"/>
        <pt x="191" y="0" on="1"/>
      </contour>
    </TTGlyph>
    <TTGlyph name="J" xMin="43" yMin="-22" xMax="388" yMax="694">
      <contour>
        <pt x="287" y="129" on="1"/>
        <pt x="287" y="694" on="1"/>
        <pt x="388" y="694" on="1"/>
        <pt x="388" y="415" on="1"/>
        <pt x="388" y="132" on="0"/>
        <pt x="387" y="125" on="1"/>
        <pt x="384" y="92" on="0"/>
        <pt x="369" y="63" on="1"/>
        <pt x="351" y="23" on="0"/>
        <pt x="268" y="-22" on="0"/>
        <pt x="212" y="-22" on="1"/>
        <pt x="139" y="-22" on="0"/>
        <pt x="61" y="11" on="1"/>
        <pt x="43" y="20" on="1"/>
        <pt x="46" y="42" on="1"/>
        <pt x="50" y="65" on="0"/>
        <pt x="54" y="88" on="1"/>
        <pt x="58" y="110" on="1"/>
        <pt x="58" y="111" on="0"/>
        <pt x="65" y="104" on="1"/>
        <pt x="106" y="53" on="0"/>
        <pt x="181" y="53" on="1"/>
        <pt x="266" y="53" on="0"/>
        <pt x="284" y="121" on="1"/>
      </contour>
    </TTGlyph>
    <TTGlyph name="K" xMin="88" yMin="0" xMax="651" yMax="694">
      <contour>
        <pt x="88" y="0" on="1"/>
        <pt x="88" y="694" on="1"/>
        <pt x="188" y="694" on="1"/>
        <pt x="188" y="519" on="1"/>
        <pt x="189" y="343" on="1"/>
        <pt x="525" y="694" on="1"/>
        <pt x="638" y="694" on="1"/>
        <pt x="507" y="557" on="1"/>
        <pt x="475" y="524" on="0"/>
        <pt x="409" y="455" on="0"/>
        <pt x="392" y="437" on="1"/>
        <pt x="375" y="419" on="1"/>
        <pt x="399" y="379" on="0"/>
        <pt x="637" y="22" on="1"/>
        <pt x="651" y="0" on="1"/>
        <pt x="541" y="0" on="1"/>
        <pt x="435" y="160" on="1"/>
        <pt x="413" y="193" on="0"/>
        <pt x="352" y="286" on="0"/>
        <pt x="322" y="332" on="0"/>
        <pt x="319" y="336" on="1"/>
        <pt x="309" y="351" on="1"/>
        <pt x="229" y="267" on="0"/>
        <pt x="188" y="225" on="1"/>
        <pt x="188" y="0" on="1"/>
      </contour>
    </TTGlyph>
    <TTGlyph name="L" xMin="87" yMin="0" xMax="499" yMax="694">
      <contour>
        <pt x="87" y="0" on="1"/>
        <pt x="87" y="694" on="1"/>
        <pt x="191" y="694" on="1"/>
        <pt x="191" y="79" on="1"/>
        <pt x="297" y="80" on="1"/>
        <pt x="451" y="80" on="1"/>
        <pt x="499" y="81" on="1"/>
        <pt x="499" y="0" on="1"/>
      </contour>
    </TTGlyph>
    <TTGlyph name="Lambda" xMin="28" yMin="0" xMax="582" yMax="694">
      <contour>
        <pt x="141" y="348" on="1"/>
        <pt x="254" y="694" on="1"/>
        <pt x="357" y="694" on="1"/>
        <pt x="469" y="348" on="1"/>
        <pt x="582" y="2" on="0"/>
        <pt x="582" y="0" on="0"/>
        <pt x="527" y="0" on="1"/>
        <pt x="473" y="1" on="1"/>
        <pt x="469" y="11" on="1"/>
        <pt x="468" y="16" on="0"/>
        <pt x="445" y="87" on="1"/>
        <pt x="305" y="518" on="0"/>
        <pt x="296" y="599" on="1"/>
        <pt x="294" y="610" on="1"/>
        <pt x="294" y="606" on="1"/>
        <pt x="294" y="582" on="0"/>
        <pt x="267" y="484" on="1"/>
        <pt x="225" y="330" on="0"/>
        <pt x="119" y="8" on="1"/>
        <pt x="117" y="0" on="1"/>
        <pt x="72" y="0" on="1"/>
        <pt x="28" y="0" on="0"/>
        <pt x="28" y="2" on="0"/>
      </contour>
    </TTGlyph>
    <TTGlyph name="M" xMin="92" yMin="0" xMax="782" yMax="694">
      <contour>
        <pt x="92" y="0" on="1"/>
        <pt x="92" y="694" on="1"/>
        <pt x="228" y="694" on="1"/>
        <pt x="233" y="680" on="1"/>
        <pt x="234" y="677" on="0"/>
        <pt x="245" y="648" on="0"/>
        <pt x="262" y="602" on="0"/>
        <pt x="270" y="582" on="1"/>
        <pt x="423" y="172" on="0"/>
        <pt x="435" y="115" on="1"/>
        <pt x="436" y="106" on="1"/>
        <pt x="454" y="183" on="0"/>
        <pt x="603" y="582" on="1"/>
        <pt x="611" y="602" on="0"/>
        <pt x="628" y="648" on="0"/>
        <pt x="639" y="677" on="0"/>
        <pt x="640" y="680" on="1"/>
        <pt x="645" y="694" on="1"/>
        <pt x="782" y="694" on="1"/>
        <pt x="782" y="0" on="1"/>
        <pt x="689" y="0" on="1"/>
        <pt x="689" y="305" on="1"/>
        <pt x="688" y="606" on="1"/>
        <pt x="688" y="593" on="0"/>
        <pt x="674" y="543" on="0"/>
        <pt x="637" y="437" on="0"/>
        <pt x="603" y="348" on="0"/>
        <pt x="527" y="150" on="0"/>
        <pt x="500" y="78" on="1"/>
        <pt x="479" y="23" on="1"/>
        <pt x="392" y="23" on="1"/>
        <pt x="364" y="96" on="1"/>
        <pt x="199" y="538" on="0"/>
        <pt x="188" y="598" on="1"/>
        <pt x="186" y="608" on="0"/>
        <pt x="186" y="609" on="1"/>
        <pt x="186" y="588" on="1"/>
        <pt x="185" y="568" on="0"/>
        <pt x="185" y="466" on="0"/>
        <pt x="185" y="387" on="0"/>
        <pt x="185" y="305" on="1"/>
        <pt x="185" y="0" on="1"/>
      </contour>
    </TTGlyph>
    <TTGlyph name="N" xMin="88" yMin="0" xMax="619" yMax="694">
      <contour>
        <pt x="88" y="0" on="1"/>
        <pt x="88" y="694" on="1"/>
        <pt x="235" y="694" on="1"/>
        <pt x="252" y="659" on="1"/>
        <pt x="260" y="640" on="0"/>
        <pt x="314" y="531" on="1"/>
        <pt x="463" y="224" on="0"/>
        <pt x="526" y="84" on="1"/>
        <pt x="526" y="694" on="1"/>
        <pt x="619" y="694" on="1"/>
        <pt x="619" y="0" on="1"/>
        <pt x="472" y="0" on="1"/>
        <pt x="455" y="35" on="1"/>
        <pt x="455" y="36" on="0"/>
        <pt x="393" y="164" on="1"/>
        <pt x="209" y="540" on="0"/>
        <pt x="185" y="601" on="1"/>
        <pt x="181" y="611" on="1"/>
        <pt x="181" y="0" on="1"/>
      </contour>
    </TTGlyph>
    <TTGlyph name="O" xMin="55" yMin="-22" xMax="680" yMax="715">
      <contour>
        <pt x="227" y="676" on="1"/>
        <pt x="293" y="715" on="0"/>
        <pt x="361" y="715" on="1"/>
        <pt x="386" y="715" on="0"/>
        <pt x="406" y="713" on="1"/>
        <pt x="471" y="703" on="0"/>
        <pt x="583" y="624" on="0"/>
        <pt x="622" y="560" on="1"/>
        <pt x="680" y="465" on="0"/>
        <pt x="680" y="344" on="1"/>
        <pt x="680" y="311" on="0"/>
        <pt x="676" y="286" on="1"/>
        <pt x="660" y="168" on="0"/>
        <pt x="513" y="-3" on="0"/>
        <pt x="403" y="-20" on="1"/>
        <pt x="387" y="-22" on="0"/>
        <pt x="368" y="-22" on="1"/>
        <pt x="348" y="-22" on="0"/>
        <pt x="332" y="-20" on="1"/>
        <pt x="236" y="-5" on="0"/>
        <pt x="165" y="66" on="1"/>
        <pt x="130" y="101" on="0"/>
        <pt x="105" y="145" on="1"/>
        <pt x="55" y="234" on="0"/>
        <pt x="55" y="345" on="1"/>
        <pt x="55" y="399" on="0"/>
        <pt x="69" y="455" on="1"/>
        <pt x="88" y="526" on="0"/>
        <pt x="170" y="642" on="0"/>
      </contour>
      <contour>
        <pt x="576" y="360" on="1"/>
        <pt x="576" y="462" on="0"/>
        <pt x="482" y="616" on="0"/>
        <pt x="401" y="634" on="1"/>
        <pt x="371" y="637" on="0"/>
        <pt x="362" y="637" on="1"/>
        <pt x="352" y="637" on="0"/>
        <pt x="348" y="636" on="1"/>
        <pt x="262" y="626" on="0"/>
        <pt x="159" y="466" on="0"/>
        <pt x="159" y="360" on="1"/>
        <pt x="159" y="247" on="0"/>
        <pt x="254" y="79" on="0"/>
        <pt x="338" y="61" on="1"/>
        <pt x="346" y="59" on="0"/>
        <pt x="368" y="59" on="1"/>
        <pt x="389" y="59" on="0"/>
        <pt x="397" y="61" on="1"/>
        <pt x="478" y="78" on="0"/>
        <pt x="576" y="246" on="0"/>
      </contour>
    </TTGlyph>
    <TTGlyph name="Omega" xMin="44" yMin="0" xMax="677" yMax="716">
      <contour>
        <pt x="69" y="537" on="1"/>
        <pt x="98" y="614" on="0"/>
        <pt x="255" y="716" on="0"/>
        <pt x="359" y="716" on="1"/>
        <pt x="506" y="716" on="0"/>
        <pt x="598" y="621" on="1"/>
        <pt x="666" y="551" on="0"/>
        <pt x="666" y="462" on="1"/>
        <pt x="666" y="449" on="0"/>
        <pt x="665" y="442" on="1"/>
        <pt x="661" y="397" on="0"/>
        <pt x="627" y="308" on="0"/>
        <pt x="583" y="230" on="1"/>
        <pt x="539" y="151" on="0"/>
        <pt x="529" y="126" on="1"/>
        <pt x="515" y="91" on="0"/>
        <pt x="515" y="86" on="1"/>
        <pt x="517" y="85" on="0"/>
        <pt x="528" y="85" on="1"/>
        <pt x="530" y="85" on="0"/>
        <pt x="575" y="86" on="0"/>
        <pt x="596" y="86" on="1"/>
        <pt x="677" y="86" on="1"/>
        <pt x="677" y="0" on="1"/>
        <pt x="425" y="0" on="1"/>
        <pt x="425" y="14" on="1"/>
        <pt x="429" y="79" on="0"/>
        <pt x="465" y="168" on="1"/>
        <pt x="481" y="204" on="0"/>
        <pt x="492" y="228" on="1"/>
        <pt x="539" y="331" on="0"/>
        <pt x="550" y="375" on="1"/>
        <pt x="562" y="417" on="0"/>
        <pt x="562" y="460" on="1"/>
        <pt x="562" y="540" on="0"/>
        <pt x="450" y="639" on="0"/>
        <pt x="361" y="639" on="1"/>
        <pt x="277" y="639" on="0"/>
        <pt x="168" y="550" on="0"/>
        <pt x="160" y="480" on="1"/>
        <pt x="159" y="474" on="0"/>
        <pt x="159" y="460" on="1"/>
        <pt x="159" y="417" on="0"/>
        <pt x="171" y="375" on="1"/>
        <pt x="182" y="331" on="0"/>
        <pt x="229" y="228" on="1"/>
        <pt x="240" y="204" on="0"/>
        <pt x="256" y="168" on="1"/>
        <pt x="292" y="79" on="0"/>
        <pt x="296" y="14" on="1"/>
        <pt x="296" y="0" on="1"/>
        <pt x="44" y="0" on="1"/>
        <pt x="44" y="86" on="1"/>
        <pt x="125" y="86" on="1"/>
        <pt x="146" y="86" on="0"/>
        <pt x="191" y="85" on="0"/>
        <pt x="193" y="85" on="1"/>
        <pt x="206" y="86" on="1"/>
        <pt x="206" y="91" on="0"/>
        <pt x="192" y="126" on="1"/>
        <pt x="182" y="151" on="0"/>
        <pt x="138" y="230" on="1"/>
        <pt x="71" y="350" on="0"/>
        <pt x="60" y="415" on="1"/>
        <pt x="55" y="442" on="0"/>
        <pt x="55" y="462" on="1"/>
        <pt x="55" y="500" on="0"/>
      </contour>
    </TTGlyph>
    <TTGlyph name="P" xMin="88" yMin="0" xMax="583" yMax="694">
      <contour>
        <pt x="88" y="0" on="1"/>
        <pt x="88" y="694" on="1"/>
        <pt x="230" y="694" on="1"/>
        <pt x="373" y="693" on="0"/>
        <pt x="386" y="691" on="1"/>
        <pt x="472" y="678" on="0"/>
        <pt x="583" y="560" on="0"/>
        <pt x="583" y="485" on="1"/>
        <pt x="583" y="467" on="0"/>
        <pt x="578" y="444" on="1"/>
        <pt x="564" y="378" on="0"/>
        <pt x="454" y="285" on="0"/>
        <pt x="379" y="276" on="1"/>
        <pt x="369" y="274" on="0"/>
        <pt x="279" y="274" on="1"/>
        <pt x="192" y="274" on="1"/>
        <pt x="192" y="0" on="1"/>
      </contour>
      <contour>
        <pt x="357" y="621" on="1"/>
        <pt x="350" y="622" on="0"/>
        <pt x="268" y="623" on="1"/>
        <pt x="189" y="623" on="1"/>
        <pt x="189" y="347" on="1"/>
        <pt x="268" y="347" on="1"/>
        <pt x="350" y="348" on="0"/>
        <pt x="357" y="349" on="1"/>
        <pt x="465" y="367" on="0"/>
        <pt x="485" y="457" on="1"/>
        <pt x="486" y="463" on="0"/>
        <pt x="486" y="485" on="1"/>
        <pt x="486" y="532" on="0"/>
        <pt x="462" y="564" on="1"/>
        <pt x="428" y="609" on="0"/>
      </contour>
    </TTGlyph>
    <TTGlyph name="Phi" xMin="55" yMin="0" xMax="666" yMax="694">
      <contour>
        <pt x="312" y="641" on="1"/>
        <pt x="312" y="694" on="1"/>
        <pt x="410" y="694" on="1"/>
        <pt x="410" y="587" on="1"/>
        <pt x="413" y="587" on="1"/>
        <pt x="448" y="581" on="0"/>
        <pt x="477" y="572" on="1"/>
        <pt x="598" y="532" on="0"/>
        <pt x="645" y="435" on="1"/>
        <pt x="666" y="392" on="0"/>
        <pt x="666" y="302" on="0"/>
        <pt x="645" y="260" on="1"/>
        <pt x="588" y="137" on="0"/>
        <pt x="413" y="107" on="1"/>
        <pt x="410" y="107" on="1"/>
        <pt x="410" y="0" on="1"/>
        <pt x="312" y="0" on="1"/>
        <pt x="312" y="54" on="1"/>
        <pt x="312" y="107" on="0"/>
        <pt x="311" y="107" on="1"/>
        <pt x="304" y="108" on="0"/>
        <pt x="296" y="109" on="1"/>
        <pt x="199" y="126" on="0"/>
        <pt x="55" y="255" on="0"/>
        <pt x="55" y="439" on="0"/>
        <pt x="199" y="568" on="0"/>
        <pt x="296" y="585" on="1"/>
        <pt x="311" y="587" on="1"/>
        <pt x="312" y="587" on="0"/>
      </contour>
      <contour>
        <pt x="312" y="347" on="1"/>
        <pt x="312" y="510" on="0"/>
        <pt x="310" y="510" on="1"/>
        <pt x="292" y="510" on="0"/>
        <pt x="264" y="497" on="1"/>
        <pt x="176" y="463" on="0"/>
        <pt x="159" y="377" on="1"/>
        <pt x="157" y="369" on="0"/>
        <pt x="157" y="325" on="0"/>
        <pt x="159" y="317" on="1"/>
        <pt x="176" y="231" on="0"/>
        <pt x="268" y="195" on="1"/>
        <pt x="285" y="190" on="0"/>
        <pt x="312" y="184" on="1"/>
      </contour>
      <contour>
        <pt x="428" y="506" on="1"/>
        <pt x="419" y="509" on="0"/>
        <pt x="414" y="509" on="1"/>
        <pt x="410" y="510" on="1"/>
        <pt x="410" y="184" on="1"/>
        <pt x="454" y="195" on="0"/>
        <pt x="473" y="203" on="1"/>
        <pt x="547" y="240" on="0"/>
        <pt x="562" y="317" on="1"/>
        <pt x="564" y="325" on="0"/>
        <pt x="564" y="347" on="1"/>
        <pt x="564" y="411" on="0"/>
        <pt x="524" y="454" on="1"/>
        <pt x="484" y="494" on="0"/>
      </contour>
    </TTGlyph>
    <TTGlyph name="Pi" xMin="86" yMin="0" xMax="621" yMax="691">
      <contour>
        <pt x="86" y="0" on="1"/>
        <pt x="86" y="691" on="1"/>
        <pt x="621" y="691" on="1"/>
        <pt x="621" y="0" on="1"/>
        <pt x="517" y="0" on="1"/>
        <pt x="517" y="615" on="1"/>
        <pt x="190" y="615" on="1"/>
        <pt x="190" y="0" on="1"/>
      </contour>
    </TTGlyph>
    <TTGlyph name="Psi" xMin="55" yMin="0" xMax="722" yMax="694">
      <contour>
        <pt x="340" y="187" on="1"/>
        <pt x="340" y="694" on="1"/>
        <pt x="438" y="694" on="1"/>
        <pt x="438" y="187" on="1"/>
        <pt x="478" y="204" on="0"/>
        <pt x="495" y="219" on="1"/>
        <pt x="534" y="252" on="0"/>
        <pt x="550" y="315" on="1"/>
        <pt x="561" y="356" on="0"/>
        <pt x="562" y="435" on="1"/>
        <pt x="562" y="575" on="0"/>
        <pt x="593" y="608" on="1"/>
        <pt x="609" y="622" on="0"/>
        <pt x="629" y="622" on="1"/>
        <pt x="632" y="622" on="0"/>
        <pt x="659" y="621" on="0"/>
        <pt x="670" y="621" on="1"/>
        <pt x="722" y="621" on="1"/>
        <pt x="722" y="545" on="1"/>
        <pt x="719" y="545" on="1"/>
        <pt x="718" y="545" on="0"/>
        <pt x="712" y="544" on="0"/>
        <pt x="710" y="544" on="1"/>
        <pt x="679" y="536" on="0"/>
        <pt x="666" y="487" on="1"/>
        <pt x="664" y="475" on="0"/>
        <pt x="657" y="356" on="0"/>
        <pt x="655" y="343" on="1"/>
        <pt x="626" y="142" on="0"/>
        <pt x="446" y="109" on="1"/>
        <pt x="438" y="108" on="1"/>
        <pt x="438" y="0" on="1"/>
        <pt x="340" y="0" on="1"/>
        <pt x="340" y="108" on="1"/>
        <pt x="326" y="110" on="1"/>
        <pt x="240" y="126" on="0"/>
        <pt x="134" y="250" on="0"/>
        <pt x="122" y="346" on="1"/>
        <pt x="120" y="359" on="0"/>
        <pt x="113" y="476" on="0"/>
        <pt x="111" y="487" on="1"/>
        <pt x="98" y="536" on="0"/>
        <pt x="67" y="544" on="1"/>
        <pt x="65" y="544" on="0"/>
        <pt x="59" y="545" on="0"/>
        <pt x="58" y="545" on="1"/>
        <pt x="55" y="545" on="1"/>
        <pt x="55" y="621" on="1"/>
        <pt x="107" y="621" on="1"/>
        <pt x="160" y="621" on="0"/>
        <pt x="163" y="620" on="1"/>
        <pt x="191" y="613" on="0"/>
        <pt x="202" y="573" on="1"/>
        <pt x="214" y="535" on="0"/>
        <pt x="215" y="435" on="1"/>
        <pt x="216" y="369" on="0"/>
        <pt x="221" y="340" on="1"/>
        <pt x="230" y="287" on="0"/>
        <pt x="256" y="249" on="1"/>
        <pt x="283" y="206" on="0"/>
        <pt x="333" y="190" on="1"/>
      </contour>
    </TTGlyph>
    <TTGlyph name="Q" xMin="55" yMin="-125" xMax="680" yMax="715">
      <contour>
        <pt x="227" y="676" on="1"/>
        <pt x="293" y="715" on="0"/>
        <pt x="361" y="715" on="1"/>
        <pt x="386" y="715" on="0"/>
        <pt x="406" y="713" on="1"/>
        <pt x="471" y="703" on="0"/>
        <pt x="583" y="624" on="0"/>
        <pt x="622" y="560" on="1"/>
        <pt x="680" y="465" on="0"/>
        <pt x="680" y="344" on="1"/>
        <pt x="680" y="311" on="0"/>
        <pt x="676" y="286" on="1"/>
        <pt x="661" y="175" on="0"/>
        <pt x="596" y="94" on="1"/>
        <pt x="577" y="70" on="0"/>
        <pt x="546" y="44" on="1"/>
        <pt x="536" y="36" on="0"/>
        <pt x="536" y="35" on="1"/>
        <pt x="537" y="34" on="0"/>
        <pt x="587" y="-35" on="0"/>
        <pt x="644" y="-115" on="0"/>
        <pt x="652" y="-125" on="1"/>
        <pt x="531" y="-125" on="1"/>
        <pt x="496" y="-76" on="0"/>
        <pt x="452" y="-8" on="1"/>
        <pt x="440" y="-12" on="1"/>
        <pt x="407" y="-22" on="0"/>
        <pt x="369" y="-22" on="1"/>
        <pt x="257" y="-22" on="0"/>
        <pt x="165" y="66" on="1"/>
        <pt x="130" y="101" on="0"/>
        <pt x="105" y="145" on="1"/>
        <pt x="55" y="234" on="0"/>
        <pt x="55" y="345" on="1"/>
        <pt x="55" y="399" on="0"/>
        <pt x="69" y="455" on="1"/>
        <pt x="88" y="526" on="0"/>
        <pt x="170" y="642" on="0"/>
      </contour>
      <contour>
        <pt x="404" y="61" on="1"/>
        <pt x="404" y="63" on="0"/>
        <pt x="315" y="193" on="0"/>
        <pt x="315" y="194" on="1"/>
        <pt x="421" y="194" on="1"/>
        <pt x="453" y="150" on="1"/>
        <pt x="485" y="105" on="0"/>
        <pt x="486" y="105" on="1"/>
        <pt x="492" y="110" on="1"/>
        <pt x="498" y="116" on="0"/>
        <pt x="513" y="133" on="0"/>
        <pt x="517" y="138" on="1"/>
        <pt x="579" y="218" on="0"/>
        <pt x="579" y="345" on="1"/>
        <pt x="579" y="456" on="0"/>
        <pt x="474" y="624" on="0"/>
        <pt x="388" y="636" on="1"/>
        <pt x="382" y="637" on="0"/>
        <pt x="369" y="637" on="1"/>
        <pt x="320" y="637" on="0"/>
        <pt x="235" y="582" on="0"/>
        <pt x="209" y="542" on="1"/>
        <pt x="156" y="462" on="0"/>
        <pt x="156" y="345" on="1"/>
        <pt x="156" y="234" on="0"/>
        <pt x="256" y="76" on="0"/>
        <pt x="337" y="60" on="1"/>
        <pt x="347" y="58" on="0"/>
        <pt x="368" y="58" on="1"/>
        <pt x="390" y="58" on="0"/>
        <pt x="395" y="59" on="1"/>
        <pt x="397" y="59" on="0"/>
        <pt x="401" y="60" on="0"/>
        <pt x="402" y="60" on="1"/>
      </contour>
    </TTGlyph>
    <TTGlyph name="R" xMin="88" yMin="0" xMax="617" yMax="694">
      <contour>
        <pt x="88" y="0" on="1"/>
        <pt x="88" y="694" on="1"/>
        <pt x="227" y="694" on="1"/>
        <pt x="370" y="693" on="0"/>
        <pt x="379" y="692" on="1"/>
        <pt x="434" y="683" on="0"/>
        <pt x="474" y="663" on="1"/>
        <pt x="528" y="637" on="0"/>
        <pt x="589" y="552" on="0"/>
        <pt x="589" y="504" on="1"/>
        <pt x="589" y="445" on="0"/>
        <pt x="506" y="350" on="0"/>
        <pt x="441" y="326" on="1"/>
        <pt x="429" y="320" on="1"/>
        <pt x="440" y="300" on="1"/>
        <pt x="452" y="280" on="0"/>
        <pt x="503" y="195" on="0"/>
        <pt x="523" y="160" on="1"/>
        <pt x="617" y="1" on="1"/>
        <pt x="565" y="0" on="1"/>
        <pt x="513" y="0" on="0"/>
        <pt x="512" y="1" on="1"/>
        <pt x="512" y="2" on="0"/>
        <pt x="424" y="156" on="1"/>
        <pt x="337" y="309" on="1"/>
        <pt x="189" y="309" on="1"/>
        <pt x="189" y="0" on="1"/>
      </contour>
      <contour>
        <pt x="367" y="620" on="1"/>
        <pt x="354" y="622" on="0"/>
        <pt x="271" y="623" on="1"/>
        <pt x="189" y="623" on="1"/>
        <pt x="189" y="385" on="1"/>
        <pt x="271" y="385" on="1"/>
        <pt x="363" y="386" on="0"/>
        <pt x="388" y="392" on="1"/>
        <pt x="472" y="412" on="0"/>
        <pt x="490" y="479" on="1"/>
        <pt x="492" y="485" on="0"/>
        <pt x="492" y="523" on="0"/>
        <pt x="490" y="529" on="1"/>
        <pt x="471" y="603" on="0"/>
      </contour>
    </TTGlyph>
    <TTGlyph name="S" xMin="44" yMin="-22" xMax="500" yMax="716">
      <contour>
        <pt x="44" y="50" on="1"/>
        <pt x="62" y="146" on="1"/>
        <pt x="121" y="87" on="0"/>
        <pt x="216" y="68" on="1"/>
        <pt x="245" y="63" on="0"/>
        <pt x="274" y="63" on="1"/>
        <pt x="286" y="63" on="1"/>
        <pt x="303" y="63" on="0"/>
        <pt x="319" y="69" on="1"/>
        <pt x="357" y="81" on="0"/>
        <pt x="406" y="142" on="0"/>
        <pt x="406" y="182" on="1"/>
        <pt x="406" y="245" on="0"/>
        <pt x="352" y="280" on="1"/>
        <pt x="338" y="290" on="0"/>
        <pt x="310" y="299" on="0"/>
        <pt x="259" y="312" on="1"/>
        <pt x="196" y="327" on="0"/>
        <pt x="173" y="339" on="1"/>
        <pt x="122" y="363" on="0"/>
        <pt x="55" y="454" on="0"/>
        <pt x="55" y="514" on="1"/>
        <pt x="55" y="546" on="0"/>
        <pt x="65" y="573" on="1"/>
        <pt x="87" y="638" on="0"/>
        <pt x="204" y="716" on="0"/>
        <pt x="283" y="716" on="1"/>
        <pt x="370" y="716" on="0"/>
        <pt x="447" y="677" on="1"/>
        <pt x="467" y="667" on="1"/>
        <pt x="467" y="666" on="0"/>
        <pt x="450" y="569" on="0"/>
        <pt x="449" y="568" on="1"/>
        <pt x="446" y="571" on="0"/>
        <pt x="442" y="574" on="1"/>
        <pt x="405" y="606" on="0"/>
        <pt x="335" y="634" on="0"/>
        <pt x="282" y="634" on="1"/>
        <pt x="230" y="634" on="0"/>
        <pt x="163" y="588" on="0"/>
        <pt x="152" y="549" on="1"/>
        <pt x="150" y="543" on="0"/>
        <pt x="150" y="525" on="1"/>
        <pt x="150" y="511" on="0"/>
        <pt x="151" y="506" on="1"/>
        <pt x="163" y="458" on="0"/>
        <pt x="212" y="435" on="1"/>
        <pt x="228" y="427" on="0"/>
        <pt x="289" y="412" on="1"/>
        <pt x="353" y="396" on="0"/>
        <pt x="378" y="384" on="1"/>
        <pt x="433" y="357" on="0"/>
        <pt x="500" y="255" on="0"/>
        <pt x="500" y="194" on="1"/>
        <pt x="500" y="105" on="0"/>
        <pt x="372" y="-22" on="0"/>
        <pt x="272" y="-22" on="1"/>
        <pt x="244" y="-22" on="0"/>
        <pt x="219" y="-18" on="1"/>
        <pt x="131" y="-6" on="0"/>
        <pt x="51" y="43" on="1"/>
        <pt x="44" y="48" on="0"/>
      </contour>
    </TTGlyph>
    <TTGlyph name="Sigma" xMin="55" yMin="0" xMax="666" yMax="694">
      <contour>
        <pt x="55" y="0" on="1"/>
        <pt x="61" y="10" on="0"/>
        <pt x="285" y="329" on="0"/>
        <pt x="288" y="332" on="1"/>
        <pt x="288" y="334" on="0"/>
        <pt x="172" y="474" on="1"/>
        <pt x="55" y="615" on="1"/>
        <pt x="55" y="694" on="1"/>
        <pt x="666" y="694" on="1"/>
        <pt x="666" y="614" on="1"/>
        <pt x="428" y="614" on="1"/>
        <pt x="190" y="615" on="1"/>
        <pt x="199" y="604" on="1"/>
        <pt x="216" y="584" on="1"/>
        <pt x="233" y="563" on="0"/>
        <pt x="285" y="500" on="0"/>
        <pt x="310" y="470" on="1"/>
        <pt x="412" y="347" on="1"/>
        <pt x="322" y="218" on="1"/>
        <pt x="240" y="101" on="0"/>
        <pt x="228" y="84" on="1"/>
        <pt x="447" y="85" on="1"/>
        <pt x="666" y="85" on="1"/>
        <pt x="666" y="0" on="1"/>
      </contour>
    </TTGlyph>
    <TTGlyph name="T" xMin="36" yMin="0" xMax="644" yMax="688">
      <contour>
        <pt x="36" y="608" on="1"/>
        <pt x="36" y="688" on="1"/>
        <pt x="644" y="688" on="1"/>
        <pt x="644" y="608" on="1"/>
        <pt x="518" y="608" on="1"/>
        <pt x="392" y="609" on="1"/>
        <pt x="392" y="0" on="1"/>
        <pt x="288" y="0" on="1"/>
        <pt x="288" y="609" on="1"/>
        <pt x="162" y="608" on="1"/>
      </contour>
    </TTGlyph>
    <TTGlyph name="Theta" xMin="56" yMin="-21" xMax="722" yMax="716">
      <contour>
        <pt x="56" y="344" on="1"/>
        <pt x="56" y="495" on="0"/>
        <pt x="235" y="703" on="0"/>
        <pt x="363" y="715" on="1"/>
        <pt x="371" y="716" on="0"/>
        <pt x="388" y="716" on="1"/>
        <pt x="461" y="716" on="0"/>
        <pt x="524" y="683" on="1"/>
        <pt x="605" y="643" on="0"/>
        <pt x="708" y="489" on="0"/>
        <pt x="720" y="390" on="1"/>
        <pt x="722" y="368" on="0"/>
        <pt x="722" y="320" on="0"/>
        <pt x="720" y="300" on="1"/>
        <pt x="705" y="186" on="0"/>
        <pt x="639" y="102" on="1"/>
        <pt x="609" y="67" on="0"/>
        <pt x="587" y="50" on="1"/>
        <pt x="518" y="-6" on="0"/>
        <pt x="430" y="-19" on="1"/>
        <pt x="418" y="-21" on="0"/>
        <pt x="389" y="-21" on="1"/>
        <pt x="359" y="-21" on="0"/>
        <pt x="347" y="-19" on="1"/>
        <pt x="230" y="-1" on="0"/>
        <pt x="72" y="176" on="0"/>
        <pt x="57" y="300" on="1"/>
        <pt x="56" y="310" on="0"/>
      </contour>
      <contour>
        <pt x="420" y="637" on="1"/>
        <pt x="404" y="639" on="0"/>
        <pt x="380" y="639" on="1"/>
        <pt x="333" y="639" on="0"/>
        <pt x="290" y="614" on="1"/>
        <pt x="227" y="579" on="0"/>
        <pt x="153" y="438" on="0"/>
        <pt x="153" y="344" on="1"/>
        <pt x="153" y="231" on="0"/>
        <pt x="266" y="75" on="0"/>
        <pt x="355" y="58" on="1"/>
        <pt x="363" y="56" on="0"/>
        <pt x="388" y="56" on="1"/>
        <pt x="431" y="56" on="0"/>
        <pt x="469" y="72" on="1"/>
        <pt x="540" y="102" on="0"/>
        <pt x="624" y="246" on="0"/>
        <pt x="624" y="345" on="1"/>
        <pt x="624" y="451" on="0"/>
        <pt x="575" y="529" on="1"/>
        <pt x="517" y="620" on="0"/>
      </contour>
      <contour>
        <pt x="209" y="299" on="1"/>
        <pt x="209" y="397" on="1"/>
        <pt x="568" y="397" on="1"/>
        <pt x="568" y="299" on="1"/>
      </contour>
    </TTGlyph>
    <TTGlyph name="U" xMin="87" yMin="-22" xMax="600" yMax="694">
      <contour>
        <pt x="87" y="450" on="1"/>
        <pt x="87" y="694" on="1"/>
        <pt x="191" y="694" on="1"/>
        <pt x="191" y="449" on="1"/>
        <pt x="192" y="203" on="0"/>
        <pt x="193" y="194" on="1"/>
        <pt x="203" y="130" on="0"/>
        <pt x="239" y="94" on="1"/>
        <pt x="281" y="49" on="0"/>
        <pt x="347" y="49" on="1"/>
        <pt x="406" y="49" on="0"/>
        <pt x="489" y="122" on="0"/>
        <pt x="501" y="178" on="1"/>
        <pt x="505" y="195" on="0"/>
        <pt x="506" y="241" on="0"/>
        <pt x="507" y="449" on="1"/>
        <pt x="507" y="694" on="1"/>
        <pt x="600" y="694" on="1"/>
        <pt x="600" y="450" on="1"/>
        <pt x="600" y="414" on="0"/>
        <pt x="600" y="356" on="1"/>
        <pt x="599" y="198" on="0"/>
        <pt x="595" y="181" on="1"/>
        <pt x="594" y="178" on="0"/>
        <pt x="594" y="177" on="1"/>
        <pt x="580" y="115" on="0"/>
        <pt x="496" y="17" on="0"/>
        <pt x="439" y="-4" on="1"/>
        <pt x="394" y="-22" on="0"/>
        <pt x="345" y="-22" on="1"/>
        <pt x="266" y="-22" on="0"/>
        <pt x="142" y="60" on="0"/>
        <pt x="112" y="123" on="1"/>
        <pt x="97" y="153" on="0"/>
        <pt x="89" y="196" on="1"/>
        <pt x="88" y="205" on="0"/>
      </contour>
    </TTGlyph>
    <TTGlyph name="Upsilon" xMin="55" yMin="0" xMax="722" yMax="716">
      <contour>
        <pt x="219" y="716" on="1"/>
        <pt x="353" y="716" on="0"/>
        <pt x="389" y="510" on="1"/>
        <pt x="390" y="511" on="0"/>
        <pt x="392" y="527" on="1"/>
        <pt x="426" y="709" on="0"/>
        <pt x="552" y="716" on="1"/>
        <pt x="557" y="716" on="1"/>
        <pt x="622" y="716" on="0"/>
        <pt x="717" y="629" on="0"/>
        <pt x="722" y="565" on="1"/>
        <pt x="722" y="555" on="1"/>
        <pt x="629" y="555" on="1"/>
        <pt x="629" y="563" on="1"/>
        <pt x="627" y="593" on="0"/>
        <pt x="587" y="638" on="0"/>
        <pt x="557" y="638" on="1"/>
        <pt x="534" y="638" on="0"/>
        <pt x="515" y="630" on="1"/>
        <pt x="455" y="602" on="0"/>
        <pt x="445" y="473" on="1"/>
        <pt x="441" y="438" on="0"/>
        <pt x="441" y="202" on="1"/>
        <pt x="441" y="0" on="1"/>
        <pt x="337" y="0" on="1"/>
        <pt x="337" y="202" on="1"/>
        <pt x="337" y="453" on="0"/>
        <pt x="331" y="497" on="1"/>
        <pt x="313" y="634" on="0"/>
        <pt x="226" y="638" on="1"/>
        <pt x="194" y="638" on="0"/>
        <pt x="178" y="622" on="1"/>
        <pt x="151" y="600" on="0"/>
        <pt x="148" y="563" on="1"/>
        <pt x="148" y="555" on="1"/>
        <pt x="55" y="555" on="1"/>
        <pt x="55" y="565" on="1"/>
        <pt x="57" y="601" on="0"/>
        <pt x="95" y="666" on="0"/>
        <pt x="122" y="684" on="1"/>
        <pt x="165" y="716" on="0"/>
      </contour>
    </TTGlyph>
    <TTGlyph name="V" xMin="14" yMin="0" xMax="652" yMax="694">
      <contour>
        <pt x="14" y="692" on="1"/>
        <pt x="14" y="694" on="0"/>
        <pt x="68" y="694" on="1"/>
        <pt x="122" y="694" on="1"/>
        <pt x="146" y="633" on="1"/>
        <pt x="325" y="165" on="0"/>
        <pt x="339" y="90" on="1"/>
        <pt x="340" y="87" on="0"/>
        <pt x="341" y="87" on="1"/>
        <pt x="341" y="92" on="0"/>
        <pt x="354" y="137" on="1"/>
        <pt x="390" y="252" on="0"/>
        <pt x="530" y="619" on="1"/>
        <pt x="558" y="694" on="1"/>
        <pt x="605" y="694" on="1"/>
        <pt x="652" y="694" on="0"/>
        <pt x="652" y="692" on="1"/>
        <pt x="650" y="690" on="0"/>
        <pt x="395" y="18" on="0"/>
        <pt x="390" y="10" on="1"/>
        <pt x="387" y="0" on="1"/>
        <pt x="279" y="0" on="1"/>
        <pt x="276" y="10" on="1"/>
        <pt x="271" y="18" on="0"/>
        <pt x="16" y="690" on="0"/>
      </contour>
    </TTGlyph>
    <TTGlyph name="W" xMin="14" yMin="0" xMax="929" yMax="694">
      <contour>
        <pt x="14" y="693" on="1"/>
        <pt x="14" y="694" on="0"/>
        <pt x="64" y="694" on="1"/>
        <pt x="115" y="694" on="1"/>
        <pt x="117" y="685" on="0"/>
        <pt x="139" y="610" on="0"/>
        <pt x="168" y="510" on="0"/>
        <pt x="174" y="488" on="1"/>
        <pt x="270" y="143" on="0"/>
        <pt x="270" y="90" on="1"/>
        <pt x="271" y="85" on="1"/>
        <pt x="272" y="86" on="0"/>
        <pt x="272" y="92" on="1"/>
        <pt x="272" y="101" on="0"/>
        <pt x="280" y="147" on="1"/>
        <pt x="305" y="267" on="0"/>
        <pt x="405" y="616" on="1"/>
        <pt x="427" y="694" on="1"/>
        <pt x="524" y="694" on="1"/>
        <pt x="553" y="590" on="1"/>
        <pt x="672" y="174" on="0"/>
        <pt x="681" y="95" on="1"/>
        <pt x="682" y="84" on="1"/>
        <pt x="684" y="95" on="1"/>
        <pt x="693" y="177" on="0"/>
        <pt x="814" y="600" on="1"/>
        <pt x="820" y="621" on="0"/>
        <pt x="834" y="669" on="0"/>
        <pt x="838" y="680" on="1"/>
        <pt x="841" y="692" on="1"/>
        <pt x="841" y="694" on="0"/>
        <pt x="929" y="694" on="0"/>
        <pt x="929" y="693" on="1"/>
        <pt x="929" y="691" on="0"/>
        <pt x="829" y="346" on="1"/>
        <pt x="730" y="0" on="1"/>
        <pt x="679" y="0" on="1"/>
        <pt x="628" y="1" on="1"/>
        <pt x="606" y="75" on="1"/>
        <pt x="478" y="524" on="0"/>
        <pt x="470" y="600" on="1"/>
        <pt x="469" y="611" on="1"/>
        <pt x="467" y="600" on="1"/>
        <pt x="458" y="518" on="0"/>
        <pt x="338" y="101" on="1"/>
        <pt x="310" y="0" on="1"/>
        <pt x="213" y="0" on="1"/>
        <pt x="114" y="346" on="1"/>
        <pt x="14" y="691" on="0"/>
      </contour>
    </TTGlyph>
    <TTGlyph name="X" xMin="14" yMin="0" xMax="652" yMax="694">
      <contour>
        <pt x="14" y="0" on="1"/>
        <pt x="79" y="92" on="1"/>
        <pt x="144" y="183" on="0"/>
        <pt x="210" y="275" on="1"/>
        <pt x="275" y="367" on="1"/>
        <pt x="153" y="528" on="1"/>
        <pt x="123" y="567" on="0"/>
        <pt x="61" y="650" on="0"/>
        <pt x="29" y="692" on="0"/>
        <pt x="28" y="694" on="1"/>
        <pt x="150" y="694" on="1"/>
        <pt x="228" y="584" on="1"/>
        <pt x="315" y="463" on="0"/>
        <pt x="316" y="461" on="1"/>
        <pt x="326" y="448" on="1"/>
        <pt x="497" y="694" on="1"/>
        <pt x="610" y="694" on="1"/>
        <pt x="609" y="692" on="1"/>
        <pt x="606" y="689" on="0"/>
        <pt x="492" y="528" on="1"/>
        <pt x="440" y="454" on="0"/>
        <pt x="377" y="366" on="0"/>
        <pt x="378" y="366" on="1"/>
        <pt x="378" y="365" on="0"/>
        <pt x="515" y="182" on="1"/>
        <pt x="652" y="0" on="1"/>
        <pt x="531" y="0" on="1"/>
        <pt x="429" y="146" on="1"/>
        <pt x="326" y="292" on="1"/>
        <pt x="326" y="293" on="0"/>
        <pt x="272" y="214" on="0"/>
        <pt x="226" y="146" on="1"/>
        <pt x="128" y="0" on="1"/>
      </contour>
    </TTGlyph>
    <TTGlyph name="Xi" xMin="42" yMin="0" xMax="624" yMax="688">
      <contour>
        <pt x="47" y="600" on="1"/>
        <pt x="47" y="688" on="1"/>
        <pt x="619" y="688" on="1"/>
        <pt x="619" y="600" on="1"/>
      </contour>
      <contour>
        <pt x="111" y="314" on="1"/>
        <pt x="111" y="401" on="1"/>
        <pt x="555" y="401" on="1"/>
        <pt x="555" y="314" on="1"/>
      </contour>
      <contour>
        <pt x="42" y="0" on="1"/>
        <pt x="42" y="88" on="1"/>
        <pt x="624" y="88" on="1"/>
        <pt x="624" y="0" on="1"/>
      </contour>
    </TTGlyph>
    <TTGlyph name="Y" xMin="4" yMin="0" xMax="663" yMax="694">
      <contour>
        <pt x="4" y="693" on="1"/>
        <pt x="64" y="694" on="1"/>
        <pt x="125" y="694" on="1"/>
        <pt x="174" y="621" on="1"/>
        <pt x="335" y="378" on="0"/>
        <pt x="340" y="364" on="1"/>
        <pt x="341" y="362" on="1"/>
        <pt x="409" y="480" on="0"/>
        <pt x="549" y="680" on="1"/>
        <pt x="558" y="694" on="1"/>
        <pt x="663" y="694" on="1"/>
        <pt x="662" y="693" on="0"/>
        <pt x="647" y="670" on="0"/>
        <pt x="620" y="631" on="0"/>
        <pt x="587" y="582" on="0"/>
        <pt x="543" y="516" on="0"/>
        <pt x="521" y="483" on="1"/>
        <pt x="383" y="277" on="1"/>
        <pt x="383" y="0" on="1"/>
        <pt x="282" y="0" on="1"/>
        <pt x="282" y="278" on="1"/>
        <pt x="143" y="485" on="1"/>
        <pt x="112" y="531" on="0"/>
        <pt x="38" y="642" on="0"/>
        <pt x="21" y="668" on="1"/>
      </contour>
    </TTGlyph>
    <TTGlyph name="Z" xMin="55" yMin="0" xMax="560" yMax="694">
      <contour>
        <pt x="69" y="617" on="1"/>
        <pt x="69" y="694" on="1"/>
        <pt x="555" y="694" on="1"/>
        <pt x="555" y="643" on="1"/>
        <pt x="373" y="362" on="1"/>
        <pt x="190" y="81" on="0"/>
        <pt x="190" y="79" on="1"/>
        <pt x="234" y="79" on="1"/>
        <pt x="244" y="79" on="0"/>
        <pt x="300" y="80" on="0"/>
        <pt x="389" y="81" on="0"/>
        <pt x="419" y="81" on="1"/>
        <pt x="560" y="81" on="1"/>
        <pt x="560" y="0" on="1"/>
        <pt x="55" y="0" on="1"/>
        <pt x="55" y="53" on="1"/>
        <pt x="237" y="334" on="1"/>
        <pt x="420" y="615" on="0"/>
        <pt x="420" y="617" on="1"/>
        <pt x="413" y="618" on="0"/>
        <pt x="387" y="618" on="1"/>
        <pt x="380" y="618" on="0"/>
        <pt x="287" y="617" on="0"/>
        <pt x="245" y="617" on="1"/>
      </contour>
    </TTGlyph>
    <TTGlyph name="a" xMin="38" yMin="-10" xMax="407" yMax="460">
      <contour>
        <pt x="91" y="426" on="1"/>
        <pt x="156" y="460" on="0"/>
        <pt x="227" y="460" on="1"/>
        <pt x="261" y="460" on="0"/>
        <pt x="267" y="459" on="1"/>
        <pt x="330" y="447" on="0"/>
        <pt x="368" y="400" on="1"/>
        <pt x="398" y="366" on="0"/>
        <pt x="406" y="315" on="1"/>
        <pt x="407" y="306" on="0"/>
        <pt x="407" y="152" on="1"/>
        <pt x="407" y="0" on="1"/>
        <pt x="317" y="0" on="1"/>
        <pt x="317" y="39" on="1"/>
        <pt x="306" y="32" on="1"/>
        <pt x="244" y="-10" on="0"/>
        <pt x="159" y="-10" on="1"/>
        <pt x="137" y="-10" on="0"/>
        <pt x="129" y="-8" on="1"/>
        <pt x="88" y="3" on="0"/>
        <pt x="38" y="75" on="0"/>
        <pt x="38" y="126" on="1"/>
        <pt x="38" y="142" on="0"/>
        <pt x="39" y="146" on="1"/>
        <pt x="52" y="187" on="0"/>
        <pt x="105" y="213" on="1"/>
        <pt x="177" y="247" on="0"/>
        <pt x="295" y="252" on="1"/>
        <pt x="314" y="252" on="1"/>
        <pt x="314" y="277" on="1"/>
        <pt x="314" y="305" on="0"/>
        <pt x="313" y="310" on="1"/>
        <pt x="308" y="343" on="0"/>
        <pt x="265" y="387" on="0"/>
        <pt x="236" y="387" on="1"/>
        <pt x="161" y="387" on="0"/>
        <pt x="97" y="346" on="1"/>
        <pt x="94" y="344" on="0"/>
        <pt x="87" y="339" on="0"/>
        <pt x="85" y="338" on="1"/>
        <pt x="83" y="337" on="1"/>
        <pt x="82" y="355" on="1"/>
        <pt x="80" y="373" on="0"/>
        <pt x="77" y="413" on="0"/>
        <pt x="77" y="417" on="1"/>
      </contour>
      <contour>
        <pt x="124" y="126" on="1"/>
        <pt x="124" y="99" on="0"/>
        <pt x="174" y="66" on="0"/>
        <pt x="208" y="66" on="1"/>
        <pt x="244" y="66" on="0"/>
        <pt x="298" y="98" on="0"/>
        <pt x="309" y="124" on="1"/>
        <pt x="314" y="137" on="0"/>
        <pt x="314" y="166" on="1"/>
        <pt x="314" y="186" on="1"/>
        <pt x="303" y="186" on="1"/>
        <pt x="240" y="184" on="0"/>
        <pt x="188" y="172" on="1"/>
        <pt x="152" y="163" on="0"/>
        <pt x="124" y="144" on="0"/>
      </contour>
    </TTGlyph>
    <TTGlyph name="acutecomb" xMin="-301" yMin="527" xMax="-84" yMax="694">
      <contour>
        <pt x="-239" y="612" on="1"/>
        <pt x="-177" y="694" on="1"/>
        <pt x="-84" y="694" on="1"/>
        <pt x="-86" y="692" on="1"/>
        <pt x="-86" y="691" on="0"/>
        <pt x="-104" y="670" on="0"/>
        <pt x="-142" y="625" on="0"/>
        <pt x="-157" y="608" on="1"/>
        <pt x="-226" y="527" on="1"/>
        <pt x="-264" y="527" on="1"/>
        <pt x="-301" y="528" on="1"/>
        <pt x="-293" y="539" on="1"/>
        <pt x="-285" y="550" on="0"/>
        <pt x="-252" y="594" on="0"/>
      </contour>
    </TTGlyph>
    <TTGlyph name="ampersand" xMin="42" yMin="-22" xMax="702" yMax="716">
      <contour>
        <pt x="700" y="-7" on="1"/>
        <pt x="649" y="-22" on="0"/>
        <pt x="586" y="-22" on="1"/>
        <pt x="564" y="-22" on="0"/>
        <pt x="548" y="-20" on="1"/>
        <pt x="487" y="-10" on="0"/>
        <pt x="434" y="26" on="1"/>
        <pt x="421" y="34" on="1"/>
        <pt x="414" y="31" on="0"/>
        <pt x="372" y="9" on="0"/>
        <pt x="364" y="6" on="1"/>
        <pt x="296" y="-22" on="0"/>
        <pt x="226" y="-22" on="1"/>
        <pt x="200" y="-22" on="0"/>
        <pt x="183" y="-18" on="1"/>
        <pt x="140" y="-9" on="0"/>
        <pt x="72" y="47" on="0"/>
        <pt x="55" y="87" on="1"/>
        <pt x="42" y="117" on="0"/>
        <pt x="42" y="152" on="1"/>
        <pt x="42" y="225" on="0"/>
        <pt x="95" y="276" on="1"/>
        <pt x="109" y="290" on="0"/>
        <pt x="144" y="317" on="1"/>
        <pt x="184" y="348" on="1"/>
        <pt x="178" y="365" on="1"/>
        <pt x="156" y="430" on="0"/>
        <pt x="156" y="502" on="1"/>
        <pt x="156" y="611" on="0"/>
        <pt x="209" y="672" on="1"/>
        <pt x="248" y="716" on="0"/>
        <pt x="302" y="716" on="1"/>
        <pt x="365" y="716" on="0"/>
        <pt x="444" y="616" on="0"/>
        <pt x="444" y="549" on="1"/>
        <pt x="444" y="531" on="0"/>
        <pt x="442" y="523" on="1"/>
        <pt x="426" y="446" on="0"/>
        <pt x="304" y="348" on="1"/>
        <pt x="287" y="334" on="1"/>
        <pt x="312" y="284" on="0"/>
        <pt x="372" y="207" on="1"/>
        <pt x="428" y="139" on="0"/>
        <pt x="432" y="139" on="0"/>
        <pt x="467" y="174" on="0"/>
        <pt x="479" y="189" on="1"/>
        <pt x="549" y="274" on="0"/>
        <pt x="583" y="394" on="1"/>
        <pt x="584" y="398" on="0"/>
        <pt x="586" y="404" on="1"/>
        <pt x="587" y="408" on="0"/>
        <pt x="587" y="409" on="1"/>
        <pt x="588" y="409" on="0"/>
        <pt x="664" y="388" on="0"/>
        <pt x="665" y="388" on="1"/>
        <pt x="664" y="386" on="1"/>
        <pt x="664" y="384" on="0"/>
        <pt x="662" y="378" on="0"/>
        <pt x="661" y="375" on="1"/>
        <pt x="613" y="208" on="0"/>
        <pt x="502" y="98" on="1"/>
        <pt x="491" y="87" on="1"/>
        <pt x="536" y="57" on="0"/>
        <pt x="584" y="57" on="1"/>
        <pt x="656" y="57" on="0"/>
        <pt x="700" y="75" on="1"/>
        <pt x="702" y="75" on="0"/>
        <pt x="702" y="-7" on="0"/>
      </contour>
      <contour>
        <pt x="359" y="552" on="1"/>
        <pt x="359" y="591" on="0"/>
        <pt x="330" y="640" on="0"/>
        <pt x="302" y="640" on="1"/>
        <pt x="260" y="640" on="0"/>
        <pt x="242" y="593" on="1"/>
        <pt x="233" y="571" on="0"/>
        <pt x="233" y="535" on="1"/>
        <pt x="236" y="474" on="0"/>
        <pt x="253" y="417" on="1"/>
        <pt x="257" y="407" on="1"/>
        <pt x="271" y="419" on="1"/>
        <pt x="312" y="454" on="0"/>
        <pt x="330" y="479" on="1"/>
        <pt x="350" y="503" on="0"/>
        <pt x="358" y="530" on="1"/>
        <pt x="359" y="535" on="0"/>
      </contour>
      <contour>
        <pt x="345" y="102" on="1"/>
        <pt x="264" y="187" on="0"/>
        <pt x="216" y="277" on="1"/>
        <pt x="215" y="277" on="0"/>
        <pt x="192" y="257" on="0"/>
        <pt x="167" y="237" on="0"/>
        <pt x="165" y="236" on="1"/>
        <pt x="135" y="208" on="0"/>
        <pt x="135" y="159" on="1"/>
        <pt x="135" y="125" on="0"/>
        <pt x="170" y="70" on="0"/>
        <pt x="198" y="61" on="1"/>
        <pt x="207" y="58" on="0"/>
        <pt x="227" y="58" on="1"/>
        <pt x="290" y="58" on="0"/>
        <pt x="357" y="89" on="1"/>
      </contour>
    </TTGlyph>
    <TTGlyph name="asciicircum" xMin="79" yMin="527" xMax="420" yMax="694">
      <contour>
        <pt x="146" y="612" on="1"/>
        <pt x="212" y="694" on="1"/>
        <pt x="287" y="694" on="1"/>
        <pt x="353" y="612" on="1"/>
        <pt x="417" y="532" on="0"/>
        <pt x="420" y="529" on="1"/>
        <pt x="421" y="528" on="0"/>
        <pt x="418" y="527" on="1"/>
        <pt x="414" y="527" on="0"/>
        <pt x="383" y="527" on="1"/>
        <pt x="345" y="527" on="1"/>
        <pt x="281" y="601" on="0"/>
        <pt x="250" y="639" on="1"/>
        <pt x="244" y="633" on="0"/>
        <pt x="199" y="580" on="1"/>
        <pt x="154" y="527" on="1"/>
        <pt x="116" y="527" on="1"/>
        <pt x="79" y="528" on="0"/>
        <pt x="79" y="529" on="1"/>
        <pt x="82" y="532" on="0"/>
      </contour>
    </TTGlyph>
    <TTGlyph name="asciitilde" xMin="83" yMin="193" xMax="416" yMax="327">
      <contour>
        <pt x="83" y="204" on="1"/>
        <pt x="86" y="256" on="0"/>
        <pt x="142" y="327" on="0"/>
        <pt x="186" y="327" on="1"/>
        <pt x="212" y="327" on="0"/>
        <pt x="248" y="300" on="1"/>
        <pt x="282" y="275" on="0"/>
        <pt x="301" y="271" on="1"/>
        <pt x="305" y="270" on="0"/>
        <pt x="312" y="270" on="1"/>
        <pt x="337" y="270" on="0"/>
        <pt x="340" y="315" on="1"/>
        <pt x="340" y="327" on="1"/>
        <pt x="416" y="327" on="1"/>
        <pt x="416" y="316" on="1"/>
        <pt x="413" y="264" on="0"/>
        <pt x="358" y="193" on="0"/>
        <pt x="315" y="193" on="1"/>
        <pt x="288" y="193" on="0"/>
        <pt x="251" y="220" on="1"/>
        <pt x="217" y="245" on="0"/>
        <pt x="198" y="249" on="1"/>
        <pt x="194" y="250" on="0"/>
        <pt x="187" y="250" on="1"/>
        <pt x="162" y="250" on="0"/>
        <pt x="159" y="205" on="1"/>
        <pt x="159" y="193" on="1"/>
        <pt x="83" y="193" on="1"/>
      </contour>
    </TTGlyph>
    <TTGlyph name="asterisk" xMin="63" yMin="306" xMax="436" yMax="750">
      <contour>
        <pt x="208" y="717" on="1"/>
        <pt x="211" y="731" on="0"/>
        <pt x="234" y="750" on="0"/>
        <pt x="250" y="750" on="1"/>
        <pt x="265" y="750" on="0"/>
        <pt x="289" y="731" on="0"/>
        <pt x="291" y="717" on="1"/>
        <pt x="285" y="591" on="1"/>
        <pt x="377" y="656" on="1"/>
        <pt x="384" y="659" on="0"/>
        <pt x="393" y="659" on="1"/>
        <pt x="410" y="659" on="0"/>
        <pt x="436" y="635" on="0"/>
        <pt x="436" y="616" on="1"/>
        <pt x="436" y="600" on="0"/>
        <pt x="425" y="589" on="1"/>
        <pt x="421" y="584" on="0"/>
        <pt x="368" y="556" on="1"/>
        <pt x="316" y="528" on="1"/>
        <pt x="339" y="515" on="0"/>
        <pt x="368" y="500" on="1"/>
        <pt x="421" y="472" on="0"/>
        <pt x="425" y="467" on="1"/>
        <pt x="436" y="456" on="0"/>
        <pt x="436" y="440" on="1"/>
        <pt x="436" y="421" on="0"/>
        <pt x="410" y="396" on="0"/>
        <pt x="393" y="396" on="1"/>
        <pt x="387" y="396" on="0"/>
        <pt x="377" y="400" on="1"/>
        <pt x="285" y="465" on="1"/>
        <pt x="286" y="437" on="1"/>
        <pt x="288" y="409" on="0"/>
        <pt x="291" y="350" on="0"/>
        <pt x="291" y="347" on="1"/>
        <pt x="291" y="328" on="0"/>
        <pt x="267" y="306" on="0"/>
        <pt x="250" y="306" on="1"/>
        <pt x="234" y="306" on="0"/>
        <pt x="210" y="325" on="0"/>
        <pt x="208" y="339" on="1"/>
        <pt x="214" y="465" on="1"/>
        <pt x="122" y="400" on="1"/>
        <pt x="114" y="397" on="0"/>
        <pt x="106" y="397" on="1"/>
        <pt x="89" y="397" on="0"/>
        <pt x="63" y="421" on="0"/>
        <pt x="63" y="440" on="1"/>
        <pt x="63" y="456" on="0"/>
        <pt x="74" y="467" on="1"/>
        <pt x="78" y="472" on="0"/>
        <pt x="131" y="500" on="1"/>
        <pt x="183" y="528" on="1"/>
        <pt x="160" y="541" on="0"/>
        <pt x="131" y="556" on="1"/>
        <pt x="78" y="584" on="0"/>
        <pt x="74" y="589" on="1"/>
        <pt x="63" y="600" on="0"/>
        <pt x="63" y="616" on="1"/>
        <pt x="63" y="635" on="0"/>
        <pt x="89" y="660" on="0"/>
        <pt x="106" y="660" on="1"/>
        <pt x="112" y="660" on="0"/>
        <pt x="122" y="656" on="1"/>
        <pt x="214" y="591" on="1"/>
      </contour>
    </TTGlyph>
    <TTGlyph name="at" xMin="56" yMin="-11" xMax="612" yMax="704">
      <contour>
        <pt x="388" y="-11" on="1"/>
        <pt x="249" y="-11" on="0"/>
        <pt x="56" y="200" on="0"/>
        <pt x="56" y="347" on="1"/>
        <pt x="56" y="410" on="0"/>
        <pt x="74" y="466" on="1"/>
        <pt x="107" y="566" on="0"/>
        <pt x="263" y="695" on="0"/>
        <pt x="362" y="704" on="1"/>
        <pt x="378" y="704" on="1"/>
        <pt x="458" y="704" on="0"/>
        <pt x="511" y="667" on="1"/>
        <pt x="535" y="651" on="0"/>
        <pt x="551" y="627" on="1"/>
        <pt x="608" y="547" on="0"/>
        <pt x="611" y="376" on="1"/>
        <pt x="611" y="320" on="0"/>
        <pt x="607" y="299" on="1"/>
        <pt x="595" y="229" on="0"/>
        <pt x="508" y="130" on="0"/>
        <pt x="449" y="119" on="1"/>
        <pt x="442" y="118" on="0"/>
        <pt x="422" y="118" on="1"/>
        <pt x="401" y="118" on="0"/>
        <pt x="395" y="119" on="1"/>
        <pt x="326" y="133" on="0"/>
        <pt x="232" y="260" on="0"/>
        <pt x="232" y="347" on="1"/>
        <pt x="232" y="402" on="0"/>
        <pt x="254" y="455" on="1"/>
        <pt x="300" y="556" on="0"/>
        <pt x="395" y="575" on="1"/>
        <pt x="401" y="576" on="0"/>
        <pt x="422" y="576" on="1"/>
        <pt x="460" y="576" on="0"/>
        <pt x="483" y="564" on="1"/>
        <pt x="488" y="562" on="0"/>
        <pt x="488" y="563" on="1"/>
        <pt x="486" y="567" on="0"/>
        <pt x="483" y="572" on="1"/>
        <pt x="448" y="629" on="0"/>
        <pt x="387" y="629" on="1"/>
        <pt x="368" y="629" on="0"/>
        <pt x="338" y="623" on="1"/>
        <pt x="263" y="603" on="0"/>
        <pt x="160" y="477" on="0"/>
        <pt x="147" y="388" on="1"/>
        <pt x="146" y="378" on="0"/>
        <pt x="146" y="347" on="1"/>
        <pt x="146" y="234" on="0"/>
        <pt x="272" y="77" on="0"/>
        <pt x="365" y="66" on="1"/>
        <pt x="376" y="65" on="0"/>
        <pt x="400" y="65" on="1"/>
        <pt x="465" y="68" on="0"/>
        <pt x="517" y="86" on="1"/>
        <pt x="532" y="91" on="1"/>
        <pt x="612" y="91" on="1"/>
        <pt x="598" y="76" on="1"/>
        <pt x="577" y="55" on="0"/>
        <pt x="550" y="37" on="1"/>
        <pt x="476" y="-11" on="0"/>
      </contour>
      <contour>
        <pt x="435" y="499" on="1"/>
        <pt x="425" y="501" on="0"/>
        <pt x="421" y="501" on="1"/>
        <pt x="400" y="501" on="0"/>
        <pt x="380" y="487" on="1"/>
        <pt x="323" y="447" on="0"/>
        <pt x="323" y="347" on="1"/>
        <pt x="323" y="299" on="0"/>
        <pt x="336" y="268" on="1"/>
        <pt x="350" y="232" on="0"/>
        <pt x="396" y="193" on="0"/>
        <pt x="422" y="193" on="1"/>
        <pt x="445" y="193" on="0"/>
        <pt x="463" y="207" on="1"/>
        <pt x="520" y="247" on="0"/>
        <pt x="520" y="347" on="1"/>
        <pt x="520" y="395" on="0"/>
        <pt x="507" y="426" on="1"/>
        <pt x="482" y="490" on="0"/>
      </contour>
    </TTGlyph>
    <TTGlyph name="b" xMin="75" yMin="-11" xMax="482" yMax="694">
      <contour>
        <pt x="166" y="405" on="1"/>
        <pt x="245" y="455" on="0"/>
        <pt x="336" y="455" on="1"/>
        <pt x="361" y="455" on="0"/>
        <pt x="381" y="445" on="1"/>
        <pt x="425" y="423" on="0"/>
        <pt x="482" y="303" on="0"/>
        <pt x="482" y="226" on="1"/>
        <pt x="482" y="170" on="0"/>
        <pt x="470" y="135" on="1"/>
        <pt x="455" y="85" on="0"/>
        <pt x="391" y="11" on="0"/>
        <pt x="350" y="-3" on="1"/>
        <pt x="328" y="-11" on="0"/>
        <pt x="303" y="-11" on="1"/>
        <pt x="234" y="-11" on="0"/>
        <pt x="177" y="32" on="1"/>
        <pt x="175" y="33" on="0"/>
        <pt x="171" y="36" on="0"/>
        <pt x="170" y="37" on="1"/>
        <pt x="168" y="38" on="1"/>
        <pt x="168" y="0" on="1"/>
        <pt x="75" y="0" on="1"/>
        <pt x="75" y="694" on="1"/>
        <pt x="165" y="694" on="1"/>
        <pt x="165" y="550" on="1"/>
      </contour>
      <contour>
        <pt x="168" y="118" on="1"/>
        <pt x="186" y="92" on="0"/>
        <pt x="226" y="66" on="0"/>
        <pt x="258" y="66" on="1"/>
        <pt x="275" y="66" on="0"/>
        <pt x="281" y="67" on="1"/>
        <pt x="334" y="78" on="0"/>
        <pt x="390" y="157" on="0"/>
        <pt x="390" y="285" on="0"/>
        <pt x="339" y="367" on="0"/>
        <pt x="291" y="377" on="1"/>
        <pt x="279" y="379" on="0"/>
        <pt x="265" y="379" on="1"/>
        <pt x="214" y="379" on="0"/>
        <pt x="177" y="342" on="1"/>
        <pt x="168" y="334" on="1"/>
      </contour>
    </TTGlyph>
    <TTGlyph name="bracketleft" xMin="94" yMin="-250" xMax="266" yMax="750">
      <contour>
        <pt x="94" y="-250" on="1"/>
        <pt x="94" y="750" on="1"/>
        <pt x="266" y="750" on="1"/>
        <pt x="266" y="674" on="1"/>
        <pt x="181" y="674" on="1"/>
        <pt x="181" y="-174" on="1"/>
        <pt x="266" y="-174" on="1"/>
        <pt x="266" y="-250" on="1"/>
      </contour>
    </TTGlyph>
    <TTGlyph name="bracketright" xMin="22" yMin="-250" xMax="194" yMax="750">
      <contour>
        <pt x="22" y="674" on="1"/>
        <pt x="22" y="750" on="1"/>
        <pt x="194" y="750" on="1"/>
        <pt x="194" y="-250" on="1"/>
        <pt x="22" y="-250" on="1"/>
        <pt x="22" y="-174" on="1"/>
        <pt x="107" y="-174" on="1"/>
        <pt x="107" y="674" on="1"/>
      </contour>
    </TTGlyph>
    <TTGlyph name="c" xMin="34" yMin="-10" xMax="414" yMax="460">
      <contour>
        <pt x="101" y="395" on="1"/>
        <pt x="163" y="460" on="0"/>
        <pt x="245" y="460" on="1"/>
        <pt x="303" y="460" on="0"/>
        <pt x="357" y="448" on="0"/>
        <pt x="399" y="424" on="1"/>
        <pt x="410" y="417" on="0"/>
        <pt x="410" y="415" on="1"/>
        <pt x="396" y="338" on="1"/>
        <pt x="396" y="337" on="0"/>
        <pt x="393" y="339" on="0"/>
        <pt x="390" y="341" on="1"/>
        <pt x="356" y="363" on="0"/>
        <pt x="304" y="381" on="0"/>
        <pt x="258" y="381" on="1"/>
        <pt x="232" y="381" on="0"/>
        <pt x="223" y="379" on="1"/>
        <pt x="177" y="366" on="0"/>
        <pt x="126" y="284" on="0"/>
        <pt x="126" y="224" on="1"/>
        <pt x="126" y="171" on="0"/>
        <pt x="168" y="93" on="0"/>
        <pt x="206" y="77" on="1"/>
        <pt x="227" y="68" on="0"/>
        <pt x="255" y="68" on="1"/>
        <pt x="328" y="68" on="0"/>
        <pt x="394" y="106" on="1"/>
        <pt x="408" y="114" on="1"/>
        <pt x="410" y="93" on="1"/>
        <pt x="411" y="72" on="0"/>
        <pt x="412" y="52" on="1"/>
        <pt x="414" y="32" on="1"/>
        <pt x="412" y="30" on="1"/>
        <pt x="410" y="29" on="0"/>
        <pt x="401" y="25" on="0"/>
        <pt x="398" y="23" on="1"/>
        <pt x="328" y="-10" on="0"/>
        <pt x="252" y="-10" on="1"/>
        <pt x="225" y="-10" on="0"/>
        <pt x="219" y="-9" on="1"/>
        <pt x="142" y="4" on="0"/>
        <pt x="90" y="64" on="1"/>
        <pt x="34" y="131" on="0"/>
        <pt x="34" y="223" on="1"/>
        <pt x="34" y="250" on="0"/>
        <pt x="35" y="258" on="1"/>
        <pt x="47" y="340" on="0"/>
      </contour>
    </TTGlyph>
    <TTGlyph name="colon" xMin="90" yMin="0" xMax="188" yMax="444">
      <contour>
        <pt x="90" y="346" on="1"/>
        <pt x="90" y="444" on="1"/>
        <pt x="188" y="444" on="1"/>
        <pt x="188" y="346" on="1"/>
      </contour>
      <contour>
        <pt x="90" y="0" on="1"/>
        <pt x="90" y="98" on="1"/>
        <pt x="188" y="98" on="1"/>
        <pt x="188" y="0" on="1"/>
      </contour>
    </TTGlyph>
    <TTGlyph name="comma" xMin="89" yMin="-125" xMax="188" yMax="98">
      <contour>
        <pt x="90" y="0" on="1"/>
        <pt x="90" y="98" on="1"/>
        <pt x="188" y="98" on="1"/>
        <pt x="188" y="1" on="1"/>
        <pt x="171" y="-41" on="0"/>
        <pt x="139" y="-125" on="1"/>
        <pt x="89" y="-125" on="1"/>
        <pt x="104" y="-64" on="1"/>
        <pt x="119" y="-3" on="0"/>
        <pt x="120" y="-2" on="1"/>
        <pt x="120" y="0" on="0"/>
        <pt x="105" y="0" on="1"/>
      </contour>
    </TTGlyph>
    <TTGlyph name="d" xMin="33" yMin="-10" xMax="441" yMax="694">
      <contour>
        <pt x="351" y="408" on="1"/>
        <pt x="351" y="694" on="1"/>
        <pt x="441" y="694" on="1"/>
        <pt x="441" y="0" on="1"/>
        <pt x="348" y="0" on="1"/>
        <pt x="348" y="44" on="1"/>
        <pt x="338" y="37" on="1"/>
        <pt x="276" y="-10" on="0"/>
        <pt x="198" y="-10" on="1"/>
        <pt x="177" y="-10" on="0"/>
        <pt x="168" y="-8" on="1"/>
        <pt x="99" y="11" on="0"/>
        <pt x="62" y="90" on="1"/>
        <pt x="33" y="148" on="0"/>
        <pt x="33" y="224" on="1"/>
        <pt x="33" y="247" on="0"/>
        <pt x="39" y="289" on="1"/>
        <pt x="50" y="343" on="0"/>
        <pt x="105" y="424" on="0"/>
        <pt x="142" y="442" on="1"/>
        <pt x="169" y="455" on="0"/>
        <pt x="197" y="455" on="1"/>
        <pt x="275" y="455" on="0"/>
        <pt x="342" y="414" on="1"/>
      </contour>
      <contour>
        <pt x="348" y="337" on="1"/>
        <pt x="334" y="351" on="0"/>
        <pt x="316" y="365" on="0"/>
        <pt x="283" y="378" on="0"/>
        <pt x="263" y="378" on="1"/>
        <pt x="260" y="378" on="0"/>
        <pt x="252" y="379" on="0"/>
        <pt x="251" y="379" on="1"/>
        <pt x="248" y="379" on="0"/>
        <pt x="234" y="376" on="1"/>
        <pt x="182" y="366" on="0"/>
        <pt x="126" y="285" on="0"/>
        <pt x="126" y="220" on="1"/>
        <pt x="126" y="90" on="0"/>
        <pt x="225" y="67" on="1"/>
        <pt x="231" y="66" on="0"/>
        <pt x="250" y="66" on="1"/>
        <pt x="268" y="66" on="0"/>
        <pt x="276" y="68" on="1"/>
        <pt x="315" y="79" on="0"/>
        <pt x="342" y="115" on="1"/>
        <pt x="348" y="124" on="1"/>
      </contour>
    </TTGlyph>
    <TTGlyph name="dollar" xMin="44" yMin="-56" xMax="444" yMax="750">
      <contour>
        <pt x="55" y="509" on="1"/>
        <pt x="55" y="577" on="0"/>
        <pt x="144" y="689" on="0"/>
        <pt x="213" y="701" on="1"/>
        <pt x="213" y="750" on="1"/>
        <pt x="286" y="750" on="1"/>
        <pt x="286" y="703" on="1"/>
        <pt x="289" y="703" on="1"/>
        <pt x="312" y="703" on="0"/>
        <pt x="354" y="689" on="1"/>
        <pt x="386" y="676" on="0"/>
        <pt x="417" y="655" on="1"/>
        <pt x="427" y="648" on="0"/>
        <pt x="427" y="646" on="1"/>
        <pt x="413" y="569" on="1"/>
        <pt x="413" y="568" on="0"/>
        <pt x="403" y="575" on="1"/>
        <pt x="352" y="615" on="0"/>
        <pt x="291" y="624" on="1"/>
        <pt x="286" y="624" on="1"/>
        <pt x="286" y="405" on="1"/>
        <pt x="354" y="390" on="0"/>
        <pt x="444" y="275" on="0"/>
        <pt x="444" y="199" on="1"/>
        <pt x="444" y="121" on="0"/>
        <pt x="354" y="8" on="0"/>
        <pt x="286" y="-7" on="1"/>
        <pt x="286" y="-56" on="1"/>
        <pt x="213" y="-56" on="1"/>
        <pt x="213" y="-9" on="1"/>
        <pt x="124" y="1" on="0"/>
        <pt x="55" y="51" on="1"/>
        <pt x="44" y="58" on="0"/>
        <pt x="44" y="60" on="1"/>
        <pt x="44" y="61" on="0"/>
        <pt x="52" y="101" on="1"/>
        <pt x="59" y="140" on="1"/>
        <pt x="69" y="132" on="1"/>
        <pt x="129" y="84" on="0"/>
        <pt x="204" y="72" on="1"/>
        <pt x="213" y="70" on="1"/>
        <pt x="213" y="317" on="1"/>
        <pt x="202" y="319" on="1"/>
        <pt x="147" y="334" on="0"/>
        <pt x="70" y="415" on="0"/>
        <pt x="59" y="470" on="1"/>
        <pt x="55" y="487" on="0"/>
      </contour>
      <contour>
        <pt x="213" y="424" on="1"/>
        <pt x="213" y="620" on="1"/>
        <pt x="203" y="615" on="1"/>
        <pt x="143" y="585" on="0"/>
        <pt x="143" y="522" on="1"/>
        <pt x="143" y="490" on="0"/>
        <pt x="182" y="437" on="0"/>
      </contour>
      <contour>
        <pt x="296" y="293" on="1"/>
        <pt x="287" y="297" on="1"/>
        <pt x="286" y="297" on="0"/>
        <pt x="286" y="186" on="1"/>
        <pt x="286" y="75" on="1"/>
        <pt x="293" y="79" on="1"/>
        <pt x="322" y="93" on="0"/>
        <pt x="356" y="150" on="0"/>
        <pt x="356" y="187" on="1"/>
        <pt x="356" y="222" on="0"/>
        <pt x="324" y="279" on="0"/>
      </contour>
    </TTGlyph>
    <TTGlyph name="dotlessi" xMin="74" yMin="0" xMax="164" yMax="444">
      <contour>
        <pt x="74" y="0" on="1"/>
        <pt x="74" y="444" on="1"/>
        <pt x="164" y="444" on="1"/>
        <pt x="164" y="0" on="1"/>
      </contour>
    </TTGlyph>
    <TTGlyph name="e" xMin="28" yMin="-10" xMax="415" yMax="461">
      <contour>
        <pt x="403" y="113" on="1"/>
        <pt x="409" y="43" on="0"/>
        <pt x="409" y="38" on="1"/>
        <pt x="409" y="35" on="0"/>
        <pt x="407" y="31" on="0"/>
        <pt x="405" y="29" on="0"/>
        <pt x="396" y="25" on="0"/>
        <pt x="393" y="24" on="1"/>
        <pt x="327" y="-10" on="0"/>
        <pt x="252" y="-10" on="1"/>
        <pt x="225" y="-10" on="0"/>
        <pt x="218" y="-9" on="1"/>
        <pt x="144" y="4" on="0"/>
        <pt x="43" y="113" on="0"/>
        <pt x="30" y="190" on="1"/>
        <pt x="28" y="206" on="0"/>
        <pt x="28" y="226" on="1"/>
        <pt x="28" y="245" on="0"/>
        <pt x="30" y="261" on="1"/>
        <pt x="43" y="347" on="0"/>
        <pt x="101" y="405" on="1"/>
        <pt x="160" y="461" on="0"/>
        <pt x="235" y="461" on="1"/>
        <pt x="318" y="461" on="0"/>
        <pt x="366" y="400" on="1"/>
        <pt x="411" y="342" on="0"/>
        <pt x="415" y="238" on="1"/>
        <pt x="415" y="219" on="1"/>
        <pt x="113" y="219" on="1"/>
        <pt x="113" y="215" on="1"/>
        <pt x="113" y="189" on="0"/>
        <pt x="124" y="160" on="1"/>
        <pt x="156" y="79" on="0"/>
        <pt x="232" y="66" on="1"/>
        <pt x="236" y="65" on="0"/>
        <pt x="248" y="65" on="1"/>
        <pt x="332" y="65" on="0"/>
        <pt x="397" y="110" on="1"/>
      </contour>
      <contour>
        <pt x="340" y="289" on="1"/>
        <pt x="326" y="334" on="0"/>
        <pt x="278" y="385" on="0"/>
        <pt x="233" y="385" on="1"/>
        <pt x="230" y="385" on="0"/>
        <pt x="221" y="384" on="0"/>
        <pt x="219" y="384" on="1"/>
        <pt x="163" y="373" on="0"/>
        <pt x="134" y="314" on="1"/>
        <pt x="123" y="294" on="0"/>
        <pt x="123" y="289" on="1"/>
      </contour>
    </TTGlyph>
    <TTGlyph name="eight" xMin="43" yMin="-22" xMax="456" yMax="678">
      <contour>
        <pt x="55" y="500" on="1"/>
        <pt x="55" y="573" on="0"/>
        <pt x="167" y="678" on="0"/>
        <pt x="250" y="678" on="1"/>
        <pt x="313" y="678" on="0"/>
        <pt x="417" y="607" on="0"/>
        <pt x="436" y="550" on="1"/>
        <pt x="444" y="524" on="0"/>
        <pt x="444" y="501" on="1"/>
        <pt x="444" y="489" on="0"/>
        <pt x="440" y="467" on="1"/>
        <pt x="421" y="393" on="0"/>
        <pt x="336" y="357" on="1"/>
        <pt x="329" y="353" on="1"/>
        <pt x="330" y="353" on="1"/>
        <pt x="380" y="334" on="0"/>
        <pt x="445" y="261" on="0"/>
        <pt x="454" y="215" on="1"/>
        <pt x="456" y="205" on="0"/>
        <pt x="456" y="184" on="1"/>
        <pt x="456" y="94" on="0"/>
        <pt x="332" y="-22" on="0"/>
        <pt x="249" y="-22" on="1"/>
        <pt x="167" y="-22" on="0"/>
        <pt x="43" y="94" on="0"/>
        <pt x="43" y="184" on="1"/>
        <pt x="43" y="205" on="0"/>
        <pt x="45" y="215" on="1"/>
        <pt x="54" y="261" on="0"/>
        <pt x="119" y="334" on="0"/>
        <pt x="169" y="353" on="1"/>
        <pt x="171" y="354" on="0"/>
        <pt x="166" y="356" on="1"/>
        <pt x="165" y="356" on="0"/>
        <pt x="163" y="357" on="1"/>
        <pt x="113" y="378" on="0"/>
        <pt x="55" y="455" on="0"/>
      </contour>
      <contour>
        <pt x="200" y="393" on="0"/>
        <pt x="300" y="393" on="0"/>
        <pt x="358" y="447" on="0"/>
        <pt x="358" y="496" on="1"/>
        <pt x="358" y="548" on="0"/>
        <pt x="302" y="605" on="0"/>
        <pt x="250" y="605" on="1"/>
        <pt x="199" y="605" on="0"/>
        <pt x="141" y="548" on="0"/>
        <pt x="141" y="496" on="1"/>
        <pt x="141" y="447" on="0"/>
      </contour>
      <contour>
        <pt x="326" y="285" on="1"/>
        <pt x="295" y="316" on="0"/>
        <pt x="245" y="316" on="1"/>
        <pt x="194" y="316" on="0"/>
        <pt x="139" y="243" on="0"/>
        <pt x="139" y="185" on="1"/>
        <pt x="139" y="80" on="0"/>
        <pt x="222" y="57" on="1"/>
        <pt x="231" y="55" on="0"/>
        <pt x="250" y="55" on="1"/>
        <pt x="296" y="55" on="0"/>
        <pt x="327" y="84" on="1"/>
        <pt x="360" y="120" on="0"/>
        <pt x="360" y="188" on="1"/>
        <pt x="360" y="252" on="0"/>
      </contour>
    </TTGlyph>
    <TTGlyph name="emdash" xMin="0" yMin="236" xMax="999" yMax="312">
      <contour>
        <pt x="0" y="236" on="1"/>
        <pt x="0" y="312" on="1"/>
        <pt x="999" y="312" on="1"/>
        <pt x="999" y="236" on="1"/>
      </contour>
    </TTGlyph>
    <TTGlyph name="endash" xMin="0" yMin="236" xMax="499" yMax="312">
      <contour>
        <pt x="0" y="236" on="1"/>
        <pt x="0" y="312" on="1"/>
        <pt x="499" y="312" on="1"/>
        <pt x="499" y="236" on="1"/>
      </contour>
    </TTGlyph>
    <TTGlyph name="equal" xMin="56" yMin="130" xMax="722" yMax="370">
      <contour>
        <pt x="56" y="350" on="1"/>
        <pt x="56" y="363" on="0"/>
        <pt x="70" y="370" on="1"/>
        <pt x="707" y="370" on="1"/>
        <pt x="722" y="362" on="0"/>
        <pt x="722" y="350" on="1"/>
        <pt x="722" y="339" on="0"/>
        <pt x="708" y="331" on="1"/>
        <pt x="390" y="330" on="1"/>
        <pt x="72" y="330" on="1"/>
        <pt x="56" y="335" on="0"/>
      </contour>
      <contour>
        <pt x="56" y="150" on="1"/>
        <pt x="56" y="165" on="0"/>
        <pt x="72" y="170" on="1"/>
        <pt x="708" y="170" on="1"/>
        <pt x="709" y="169" on="0"/>
        <pt x="716" y="164" on="0"/>
        <pt x="719" y="161" on="0"/>
        <pt x="722" y="154" on="0"/>
        <pt x="722" y="150" on="1"/>
        <pt x="722" y="138" on="0"/>
        <pt x="707" y="130" on="1"/>
        <pt x="70" y="130" on="1"/>
        <pt x="56" y="137" on="0"/>
      </contour>
    </TTGlyph>
    <TTGlyph name="exclam" xMin="110" yMin="0" xMax="208" yMax="694">
      <contour>
        <pt x="120" y="187" on="1"/>
        <pt x="120" y="225" on="0"/>
        <pt x="110" y="655" on="0"/>
        <pt x="110" y="693" on="1"/>
        <pt x="110" y="694" on="0"/>
        <pt x="208" y="694" on="0"/>
        <pt x="208" y="693" on="1"/>
        <pt x="208" y="655" on="0"/>
        <pt x="198" y="225" on="0"/>
        <pt x="198" y="187" on="1"/>
        <pt x="198" y="186" on="0"/>
        <pt x="120" y="186" on="0"/>
      </contour>
      <contour>
        <pt x="110" y="0" on="1"/>
        <pt x="110" y="98" on="1"/>
        <pt x="208" y="98" on="1"/>
        <pt x="208" y="0" on="1"/>
      </contour>
    </TTGlyph>
    <TTGlyph name="f" xMin="27" yMin="0" xMax="347" yMax="705">
      <contour>
        <pt x="262" y="705" on="1"/>
        <pt x="303" y="705" on="0"/>
        <pt x="347" y="694" on="1"/>
        <pt x="347" y="612" on="1"/>
        <pt x="336" y="616" on="1"/>
        <pt x="303" y="628" on="0"/>
        <pt x="274" y="628" on="1"/>
        <pt x="266" y="628" on="1"/>
        <pt x="223" y="628" on="0"/>
        <pt x="199" y="605" on="1"/>
        <pt x="190" y="594" on="0"/>
        <pt x="188" y="589" on="1"/>
        <pt x="183" y="579" on="0"/>
        <pt x="181" y="559" on="0"/>
        <pt x="181" y="507" on="1"/>
        <pt x="181" y="444" on="1"/>
        <pt x="287" y="444" on="1"/>
        <pt x="287" y="371" on="1"/>
        <pt x="184" y="371" on="1"/>
        <pt x="184" y="0" on="1"/>
        <pt x="94" y="0" on="1"/>
        <pt x="94" y="371" on="1"/>
        <pt x="27" y="371" on="1"/>
        <pt x="27" y="444" on="1"/>
        <pt x="94" y="444" on="1"/>
        <pt x="94" y="492" on="1"/>
        <pt x="94" y="544" on="0"/>
        <pt x="95" y="550" on="1"/>
        <pt x="102" y="609" on="0"/>
        <pt x="183" y="695" on="0"/>
        <pt x="241" y="704" on="1"/>
        <pt x="246" y="705" on="0"/>
      </contour>
    </TTGlyph>
    <TTGlyph name="five" xMin="33" yMin="-21" xMax="449" yMax="656">
      <contour>
        <pt x="223" y="54" on="1"/>
        <pt x="279" y="54" on="0"/>
        <pt x="343" y="132" on="0"/>
        <pt x="345" y="197" on="1"/>
        <pt x="345" y="324" on="0"/>
        <pt x="278" y="348" on="1"/>
        <pt x="271" y="350" on="0"/>
        <pt x="257" y="350" on="1"/>
        <pt x="233" y="350" on="0"/>
        <pt x="215" y="341" on="1"/>
        <pt x="181" y="325" on="0"/>
        <pt x="162" y="284" on="1"/>
        <pt x="157" y="276" on="0"/>
        <pt x="157" y="273" on="1"/>
        <pt x="157" y="272" on="0"/>
        <pt x="116" y="272" on="1"/>
        <pt x="75" y="272" on="1"/>
        <pt x="75" y="656" on="1"/>
        <pt x="416" y="656" on="1"/>
        <pt x="416" y="577" on="1"/>
        <pt x="162" y="577" on="1"/>
        <pt x="162" y="486" on="1"/>
        <pt x="162" y="396" on="0"/>
        <pt x="163" y="396" on="1"/>
        <pt x="164" y="397" on="1"/>
        <pt x="166" y="398" on="0"/>
        <pt x="171" y="401" on="0"/>
        <pt x="173" y="402" on="1"/>
        <pt x="209" y="426" on="0"/>
        <pt x="258" y="426" on="1"/>
        <pt x="279" y="426" on="0"/>
        <pt x="286" y="425" on="1"/>
        <pt x="346" y="412" on="0"/>
        <pt x="428" y="323" on="0"/>
        <pt x="442" y="261" on="1"/>
        <pt x="449" y="226" on="0"/>
        <pt x="449" y="203" on="1"/>
        <pt x="449" y="140" on="0"/>
        <pt x="417" y="88" on="1"/>
        <pt x="378" y="22" on="0"/>
        <pt x="307" y="-7" on="1"/>
        <pt x="270" y="-21" on="0"/>
        <pt x="226" y="-21" on="1"/>
        <pt x="125" y="-21" on="0"/>
        <pt x="55" y="51" on="1"/>
        <pt x="33" y="73" on="0"/>
        <pt x="33" y="77" on="1"/>
        <pt x="34" y="78" on="0"/>
        <pt x="54" y="112" on="0"/>
        <pt x="64" y="128" on="1"/>
        <pt x="73" y="144" on="1"/>
        <pt x="77" y="139" on="1"/>
        <pt x="99" y="103" on="0"/>
        <pt x="178" y="54" on="0"/>
      </contour>
    </TTGlyph>
    <TTGlyph name="four" xMin="28" yMin="0" xMax="471" yMax="656">
      <contour>
        <pt x="271" y="654" on="1"/>
        <pt x="272" y="656" on="1"/>
        <pt x="380" y="656" on="1"/>
        <pt x="380" y="235" on="1"/>
        <pt x="471" y="235" on="1"/>
        <pt x="471" y="159" on="1"/>
        <pt x="380" y="159" on="1"/>
        <pt x="380" y="0" on="1"/>
        <pt x="286" y="0" on="1"/>
        <pt x="286" y="159" on="1"/>
        <pt x="28" y="159" on="1"/>
        <pt x="28" y="235" on="1"/>
        <pt x="149" y="443" on="1"/>
        <pt x="269" y="652" on="0"/>
      </contour>
      <contour>
        <pt x="292" y="235" on="1"/>
        <pt x="292" y="607" on="1"/>
        <pt x="291" y="602" on="0"/>
        <pt x="290" y="596" on="1"/>
        <pt x="281" y="510" on="0"/>
        <pt x="140" y="267" on="1"/>
        <pt x="136" y="260" on="0"/>
        <pt x="128" y="245" on="0"/>
        <pt x="126" y="240" on="1"/>
        <pt x="123" y="236" on="1"/>
        <pt x="123" y="235" on="0"/>
        <pt x="207" y="235" on="1"/>
      </contour>
    </TTGlyph>
    <TTGlyph name="g" xMin="28" yMin="-206" xMax="485" yMax="455">
      <contour>
        <pt x="82" y="38" on="1"/>
        <pt x="60" y="67" on="0"/>
        <pt x="60" y="145" on="0"/>
        <pt x="80" y="180" on="1"/>
        <pt x="86" y="189" on="1"/>
        <pt x="80" y="199" on="1"/>
        <pt x="55" y="240" on="0"/>
        <pt x="55" y="286" on="1"/>
        <pt x="55" y="359" on="0"/>
        <pt x="153" y="455" on="0"/>
        <pt x="224" y="455" on="1"/>
        <pt x="281" y="455" on="0"/>
        <pt x="323" y="421" on="1"/>
        <pt x="322" y="423" on="1"/>
        <pt x="318" y="427" on="1"/>
        <pt x="318" y="428" on="0"/>
        <pt x="333" y="432" on="1"/>
        <pt x="398" y="455" on="0"/>
        <pt x="465" y="455" on="1"/>
        <pt x="471" y="455" on="1"/>
        <pt x="478" y="416" on="1"/>
        <pt x="485" y="377" on="1"/>
        <pt x="482" y="377" on="0"/>
        <pt x="479" y="378" on="1"/>
        <pt x="444" y="385" on="0"/>
        <pt x="401" y="385" on="1"/>
        <pt x="397" y="385" on="0"/>
        <pt x="384" y="384" on="0"/>
        <pt x="381" y="384" on="1"/>
        <pt x="362" y="383" on="1"/>
        <pt x="357" y="387" on="1"/>
        <pt x="358" y="385" on="1"/>
        <pt x="389" y="340" on="0"/>
        <pt x="389" y="287" on="1"/>
        <pt x="389" y="214" on="0"/>
        <pt x="288" y="119" on="0"/>
        <pt x="221" y="119" on="1"/>
        <pt x="177" y="119" on="0"/>
        <pt x="138" y="142" on="1"/>
        <pt x="133" y="145" on="0"/>
        <pt x="131" y="143" on="1"/>
        <pt x="125" y="134" on="0"/>
        <pt x="125" y="117" on="1"/>
        <pt x="125" y="81" on="0"/>
        <pt x="155" y="72" on="1"/>
        <pt x="227" y="71" on="1"/>
        <pt x="311" y="70" on="0"/>
        <pt x="335" y="66" on="1"/>
        <pt x="418" y="52" on="0"/>
        <pt x="449" y="7" on="1"/>
        <pt x="471" y="-26" on="0"/>
        <pt x="471" y="-62" on="1"/>
        <pt x="471" y="-85" on="0"/>
        <pt x="469" y="-92" on="1"/>
        <pt x="453" y="-143" on="0"/>
        <pt x="328" y="-206" on="0"/>
        <pt x="250" y="-206" on="1"/>
        <pt x="170" y="-206" on="0"/>
        <pt x="46" y="-144" on="0"/>
        <pt x="30" y="-92" on="1"/>
        <pt x="28" y="-84" on="0"/>
        <pt x="28" y="-68" on="1"/>
        <pt x="28" y="-32" on="0"/>
        <pt x="49" y="4" on="1"/>
        <pt x="51" y="7" on="0"/>
      </contour>
      <contour>
        <pt x="304" y="241" on="0"/>
        <pt x="304" y="333" on="0"/>
        <pt x="261" y="383" on="0"/>
        <pt x="220" y="383" on="1"/>
        <pt x="182" y="383" on="0"/>
        <pt x="140" y="330" on="0"/>
        <pt x="140" y="244" on="0"/>
        <pt x="182" y="191" on="0"/>
        <pt x="220" y="191" on="1"/>
        <pt x="261" y="191" on="0"/>
      </contour>
      <contour>
        <pt x="250" y="-134" on="1"/>
        <pt x="300" y="-134" on="0"/>
        <pt x="387" y="-99" on="0"/>
        <pt x="387" y="-69" on="1"/>
        <pt x="387" y="-49" on="0"/>
        <pt x="371" y="-33" on="1"/>
        <pt x="354" y="-14" on="0"/>
        <pt x="306" y="-7" on="1"/>
        <pt x="288" y="-5" on="0"/>
        <pt x="216" y="-5" on="1"/>
        <pt x="161" y="-5" on="0"/>
        <pt x="153" y="-7" on="1"/>
        <pt x="136" y="-11" on="0"/>
        <pt x="113" y="-44" on="0"/>
        <pt x="113" y="-66" on="1"/>
        <pt x="113" y="-78" on="0"/>
        <pt x="115" y="-83" on="1"/>
        <pt x="125" y="-104" on="0"/>
        <pt x="166" y="-121" on="1"/>
        <pt x="203" y="-134" on="0"/>
      </contour>
    </TTGlyph>
    <TTGlyph name="gravecomb" xMin="-417" yMin="527" xMax="-200" yMax="694">
      <contour>
        <pt x="-415" y="692" on="1"/>
        <pt x="-417" y="694" on="1"/>
        <pt x="-324" y="694" on="1"/>
        <pt x="-262" y="612" on="1"/>
        <pt x="-249" y="594" on="0"/>
        <pt x="-216" y="550" on="0"/>
        <pt x="-208" y="539" on="1"/>
        <pt x="-200" y="528" on="1"/>
        <pt x="-237" y="527" on="1"/>
        <pt x="-275" y="527" on="1"/>
        <pt x="-344" y="608" on="1"/>
        <pt x="-359" y="625" on="0"/>
        <pt x="-397" y="670" on="0"/>
        <pt x="-415" y="691" on="0"/>
      </contour>
    </TTGlyph>
    <TTGlyph name="h" xMin="73" yMin="0" xMax="443" yMax="694">
      <contour>
        <pt x="163" y="395" on="1"/>
        <pt x="223" y="455" on="0"/>
        <pt x="307" y="455" on="1"/>
        <pt x="418" y="455" on="0"/>
        <pt x="438" y="354" on="1"/>
        <pt x="442" y="331" on="0"/>
        <pt x="443" y="164" on="1"/>
        <pt x="443" y="0" on="1"/>
        <pt x="350" y="0" on="1"/>
        <pt x="350" y="157" on="1"/>
        <pt x="349" y="315" on="0"/>
        <pt x="348" y="320" on="1"/>
        <pt x="334" y="378" on="0"/>
        <pt x="259" y="378" on="1"/>
        <pt x="224" y="378" on="0"/>
        <pt x="204" y="358" on="1"/>
        <pt x="173" y="327" on="0"/>
        <pt x="167" y="268" on="1"/>
        <pt x="166" y="261" on="0"/>
        <pt x="166" y="129" on="1"/>
        <pt x="166" y="0" on="1"/>
        <pt x="73" y="0" on="1"/>
        <pt x="73" y="694" on="1"/>
        <pt x="163" y="694" on="1"/>
      </contour>
    </TTGlyph>
    <TTGlyph name="hyphen" xMin="11" yMin="186" xMax="277" yMax="259">
      <contour>
        <pt x="11" y="186" on="1"/>
        <pt x="11" y="259" on="1"/>
        <pt x="277" y="259" on="1"/>
        <pt x="277" y="186" on="1"/>
      </contour>
    </TTGlyph>
    <TTGlyph name="i" xMin="67" yMin="0" xMax="171" yMax="680">
      <contour>
        <pt x="67" y="576" on="1"/>
        <pt x="67" y="680" on="1"/>
        <pt x="171" y="680" on="1"/>
        <pt x="171" y="576" on="1"/>
      </contour>
      <contour>
        <pt x="74" y="0" on="1"/>
        <pt x="74" y="444" on="1"/>
        <pt x="164" y="444" on="1"/>
        <pt x="164" y="0" on="1"/>
      </contour>
    </TTGlyph>
    <TTGlyph name="j" xMin="-59" yMin="-205" xMax="192" yMax="680">
      <contour>
        <pt x="88" y="576" on="1"/>
        <pt x="88" y="680" on="1"/>
        <pt x="192" y="680" on="1"/>
        <pt x="192" y="576" on="1"/>
      </contour>
      <contour>
        <pt x="102" y="-86" on="1"/>
        <pt x="102" y="444" on="1"/>
        <pt x="192" y="444" on="1"/>
        <pt x="192" y="180" on="1"/>
        <pt x="191" y="-45" on="0"/>
        <pt x="190" y="-95" on="0"/>
        <pt x="184" y="-113" on="1"/>
        <pt x="171" y="-153" on="0"/>
        <pt x="108" y="-205" on="0"/>
        <pt x="63" y="-205" on="1"/>
        <pt x="23" y="-205" on="0"/>
        <pt x="-25" y="-188" on="1"/>
        <pt x="-59" y="-175" on="0"/>
        <pt x="-59" y="-167" on="0"/>
        <pt x="-43" y="-101" on="0"/>
        <pt x="-41" y="-96" on="1"/>
        <pt x="-41" y="-95" on="0"/>
        <pt x="-38" y="-97" on="0"/>
        <pt x="-35" y="-101" on="1"/>
        <pt x="-5" y="-126" on="0"/>
        <pt x="31" y="-126" on="1"/>
        <pt x="81" y="-126" on="0"/>
        <pt x="98" y="-92" on="1"/>
      </contour>
    </TTGlyph>
    <TTGlyph name="k" xMin="76" yMin="0" xMax="471" yMax="694">
      <contour>
        <pt x="76" y="0" on="1"/>
        <pt x="76" y="694" on="1"/>
        <pt x="163" y="694" on="1"/>
        <pt x="163" y="257" on="1"/>
        <pt x="262" y="360" on="0"/>
        <pt x="340" y="444" on="1"/>
        <pt x="449" y="444" on="1"/>
        <pt x="367" y="360" on="0"/>
        <pt x="286" y="272" on="1"/>
        <pt x="292" y="263" on="1"/>
        <pt x="295" y="259" on="0"/>
        <pt x="460" y="16" on="0"/>
        <pt x="463" y="12" on="1"/>
        <pt x="471" y="0" on="1"/>
        <pt x="372" y="0" on="1"/>
        <pt x="309" y="92" on="1"/>
        <pt x="294" y="114" on="0"/>
        <pt x="260" y="164" on="0"/>
        <pt x="239" y="195" on="0"/>
        <pt x="237" y="198" on="1"/>
        <pt x="228" y="211" on="1"/>
        <pt x="217" y="199" on="0"/>
        <pt x="172" y="151" on="0"/>
        <pt x="160" y="139" on="1"/>
        <pt x="160" y="0" on="1"/>
      </contour>
    </TTGlyph>
    <TTGlyph name="l" xMin="74" yMin="0" xMax="164" yMax="694">
      <contour>
        <pt x="74" y="0" on="1"/>
        <pt x="74" y="694" on="1"/>
        <pt x="164" y="694" on="1"/>
        <pt x="164" y="0" on="1"/>
      </contour>
    </TTGlyph>
    <TTGlyph name="m" xMin="73" yMin="0" xMax="720" yMax="455">
      <contour>
        <pt x="304" y="455" on="1"/>
        <pt x="353" y="455" on="0"/>
        <pt x="411" y="420" on="0"/>
        <pt x="430" y="383" on="1"/>
        <pt x="437" y="391" on="1"/>
        <pt x="496" y="455" on="0"/>
        <pt x="584" y="455" on="1"/>
        <pt x="695" y="455" on="0"/>
        <pt x="715" y="354" on="1"/>
        <pt x="719" y="331" on="0"/>
        <pt x="720" y="164" on="1"/>
        <pt x="720" y="0" on="1"/>
        <pt x="627" y="0" on="1"/>
        <pt x="627" y="157" on="1"/>
        <pt x="626" y="315" on="0"/>
        <pt x="625" y="320" on="1"/>
        <pt x="611" y="378" on="0"/>
        <pt x="536" y="378" on="1"/>
        <pt x="501" y="378" on="0"/>
        <pt x="481" y="358" on="1"/>
        <pt x="450" y="327" on="0"/>
        <pt x="444" y="268" on="1"/>
        <pt x="443" y="261" on="0"/>
        <pt x="443" y="129" on="1"/>
        <pt x="443" y="0" on="1"/>
        <pt x="350" y="0" on="1"/>
        <pt x="350" y="157" on="1"/>
        <pt x="349" y="315" on="0"/>
        <pt x="348" y="320" on="1"/>
        <pt x="334" y="378" on="0"/>
        <pt x="259" y="378" on="1"/>
        <pt x="224" y="378" on="0"/>
        <pt x="204" y="358" on="1"/>
        <pt x="173" y="327" on="0"/>
        <pt x="167" y="268" on="1"/>
        <pt x="166" y="261" on="0"/>
        <pt x="166" y="129" on="1"/>
        <pt x="166" y="0" on="1"/>
        <pt x="73" y="0" on="1"/>
        <pt x="73" y="450" on="1"/>
        <pt x="160" y="450" on="1"/>
        <pt x="160" y="392" on="1"/>
        <pt x="223" y="455" on="0"/>
      </contour>
    </TTGlyph>
    <TTGlyph name="n" xMin="73" yMin="0" xMax="443" yMax="455">
      <contour>
        <pt x="160" y="392" on="1"/>
        <pt x="215" y="447" on="0"/>
        <pt x="283" y="454" on="1"/>
        <pt x="285" y="454" on="0"/>
        <pt x="299" y="455" on="0"/>
        <pt x="303" y="455" on="1"/>
        <pt x="306" y="455" on="1"/>
        <pt x="417" y="455" on="0"/>
        <pt x="438" y="354" on="1"/>
        <pt x="442" y="331" on="0"/>
        <pt x="443" y="164" on="1"/>
        <pt x="443" y="0" on="1"/>
        <pt x="350" y="0" on="1"/>
        <pt x="350" y="157" on="1"/>
        <pt x="349" y="315" on="0"/>
        <pt x="348" y="320" on="1"/>
        <pt x="334" y="378" on="0"/>
        <pt x="259" y="378" on="1"/>
        <pt x="224" y="378" on="0"/>
        <pt x="204" y="358" on="1"/>
        <pt x="173" y="327" on="0"/>
        <pt x="167" y="268" on="1"/>
        <pt x="166" y="261" on="0"/>
        <pt x="166" y="129" on="1"/>
        <pt x="166" y="0" on="1"/>
        <pt x="73" y="0" on="1"/>
        <pt x="73" y="450" on="1"/>
        <pt x="160" y="450" on="1"/>
      </contour>
    </TTGlyph>
    <TTGlyph name="nine" xMin="42" yMin="-22" xMax="457" yMax="677">
      <contour>
        <pt x="142" y="642" on="1"/>
        <pt x="190" y="677" on="0"/>
        <pt x="245" y="677" on="1"/>
        <pt x="306" y="677" on="0"/>
        <pt x="349" y="647" on="1"/>
        <pt x="375" y="629" on="0"/>
        <pt x="393" y="603" on="1"/>
        <pt x="457" y="510" on="0"/>
        <pt x="457" y="334" on="1"/>
        <pt x="457" y="149" on="0"/>
        <pt x="353" y="45" on="1"/>
        <pt x="288" y="-22" on="0"/>
        <pt x="205" y="-22" on="1"/>
        <pt x="135" y="-22" on="0"/>
        <pt x="81" y="18" on="1"/>
        <pt x="72" y="23" on="0"/>
        <pt x="72" y="25" on="1"/>
        <pt x="73" y="25" on="0"/>
        <pt x="91" y="58" on="1"/>
        <pt x="110" y="91" on="1"/>
        <pt x="159" y="54" on="0"/>
        <pt x="203" y="54" on="1"/>
        <pt x="221" y="54" on="0"/>
        <pt x="233" y="57" on="1"/>
        <pt x="276" y="68" on="0"/>
        <pt x="337" y="150" on="0"/>
        <pt x="350" y="212" on="1"/>
        <pt x="351" y="216" on="0"/>
        <pt x="355" y="240" on="0"/>
        <pt x="357" y="253" on="1"/>
        <pt x="357" y="257" on="1"/>
        <pt x="347" y="248" on="1"/>
        <pt x="284" y="187" on="0"/>
        <pt x="200" y="187" on="1"/>
        <pt x="183" y="187" on="0"/>
        <pt x="171" y="189" on="1"/>
        <pt x="123" y="200" on="0"/>
        <pt x="52" y="316" on="0"/>
        <pt x="44" y="381" on="1"/>
        <pt x="42" y="401" on="0"/>
        <pt x="42" y="430" on="1"/>
        <pt x="42" y="487" on="0"/>
        <pt x="66" y="557" on="0"/>
        <pt x="96" y="596" on="1"/>
        <pt x="118" y="624" on="0"/>
      </contour>
      <contour>
        <pt x="308" y="582" on="1"/>
        <pt x="283" y="605" on="0"/>
        <pt x="254" y="605" on="1"/>
        <pt x="205" y="605" on="0"/>
        <pt x="148" y="538" on="0"/>
        <pt x="141" y="487" on="1"/>
        <pt x="140" y="478" on="0"/>
        <pt x="140" y="382" on="0"/>
        <pt x="141" y="373" on="1"/>
        <pt x="146" y="335" on="0"/>
        <pt x="182" y="279" on="0"/>
        <pt x="207" y="269" on="1"/>
        <pt x="223" y="263" on="0"/>
        <pt x="247" y="263" on="1"/>
        <pt x="271" y="264" on="0"/>
        <pt x="285" y="271" on="1"/>
        <pt x="318" y="286" on="0"/>
        <pt x="358" y="365" on="0"/>
        <pt x="358" y="417" on="1"/>
        <pt x="358" y="449" on="0"/>
        <pt x="351" y="484" on="1"/>
        <pt x="340" y="552" on="0"/>
      </contour>
    </TTGlyph>
    <TTGlyph name="numbersign" xMin="56" yMin="-194" xMax="777" yMax="694">
      <contour>
        <pt x="56" y="350" on="1"/>
        <pt x="56" y="363" on="0"/>
        <pt x="70" y="370" on="1"/>
        <pt x="192" y="370" on="1"/>
        <pt x="314" y="370" on="0"/>
        <pt x="314" y="371" on="1"/>
        <pt x="397" y="681" on="0"/>
        <pt x="400" y="685" on="1"/>
        <pt x="404" y="694" on="0"/>
        <pt x="416" y="694" on="1"/>
        <pt x="423" y="694" on="0"/>
        <pt x="435" y="684" on="0"/>
        <pt x="436" y="677" on="1"/>
        <pt x="436" y="673" on="0"/>
        <pt x="356" y="372" on="0"/>
        <pt x="355" y="371" on="1"/>
        <pt x="355" y="370" on="0"/>
        <pt x="449" y="370" on="1"/>
        <pt x="544" y="370" on="0"/>
        <pt x="544" y="371" on="1"/>
        <pt x="627" y="681" on="0"/>
        <pt x="630" y="685" on="1"/>
        <pt x="636" y="694" on="0"/>
        <pt x="646" y="694" on="1"/>
        <pt x="652" y="694" on="0"/>
        <pt x="665" y="685" on="0"/>
        <pt x="665" y="678" on="1"/>
        <pt x="665" y="670" on="0"/>
        <pt x="625" y="516" on="0"/>
        <pt x="605" y="444" on="1"/>
        <pt x="585" y="371" on="1"/>
        <pt x="585" y="370" on="0"/>
        <pt x="673" y="370" on="1"/>
        <pt x="762" y="370" on="1"/>
        <pt x="777" y="362" on="0"/>
        <pt x="777" y="338" on="0"/>
        <pt x="767" y="333" on="1"/>
        <pt x="761" y="330" on="0"/>
        <pt x="668" y="330" on="1"/>
        <pt x="573" y="330" on="1"/>
        <pt x="567" y="305" on="1"/>
        <pt x="560" y="282" on="0"/>
        <pt x="545" y="226" on="1"/>
        <pt x="530" y="171" on="1"/>
        <pt x="646" y="170" on="1"/>
        <pt x="761" y="170" on="0"/>
        <pt x="767" y="167" on="1"/>
        <pt x="777" y="161" on="0"/>
        <pt x="777" y="150" on="1"/>
        <pt x="777" y="138" on="0"/>
        <pt x="762" y="130" on="1"/>
        <pt x="640" y="130" on="1"/>
        <pt x="518" y="130" on="0"/>
        <pt x="518" y="129" on="1"/>
        <pt x="435" y="-181" on="0"/>
        <pt x="432" y="-185" on="1"/>
        <pt x="426" y="-194" on="0"/>
        <pt x="416" y="-194" on="1"/>
        <pt x="410" y="-194" on="0"/>
        <pt x="397" y="-185" on="0"/>
        <pt x="397" y="-178" on="1"/>
        <pt x="397" y="-170" on="0"/>
        <pt x="437" y="-16" on="0"/>
        <pt x="457" y="56" on="1"/>
        <pt x="477" y="129" on="1"/>
        <pt x="477" y="130" on="0"/>
        <pt x="383" y="130" on="1"/>
        <pt x="288" y="130" on="0"/>
        <pt x="288" y="129" on="1"/>
        <pt x="205" y="-181" on="0"/>
        <pt x="202" y="-185" on="1"/>
        <pt x="196" y="-194" on="0"/>
        <pt x="186" y="-194" on="1"/>
        <pt x="180" y="-194" on="0"/>
        <pt x="167" y="-185" on="0"/>
        <pt x="167" y="-178" on="1"/>
        <pt x="167" y="-170" on="0"/>
        <pt x="207" y="-17" on="0"/>
        <pt x="227" y="56" on="1"/>
        <pt x="247" y="129" on="1"/>
        <pt x="247" y="130" on="0"/>
        <pt x="159" y="130" on="1"/>
        <pt x="70" y="130" on="1"/>
        <pt x="56" y="137" on="0"/>
        <pt x="56" y="150" on="1"/>
        <pt x="56" y="165" on="0"/>
        <pt x="72" y="170" on="1"/>
        <pt x="259" y="170" on="1"/>
        <pt x="265" y="195" on="1"/>
        <pt x="273" y="222" on="0"/>
        <pt x="287" y="275" on="1"/>
        <pt x="302" y="330" on="1"/>
        <pt x="186" y="330" on="1"/>
        <pt x="70" y="331" on="1"/>
        <pt x="63" y="334" on="0"/>
        <pt x="58" y="339" on="1"/>
        <pt x="56" y="343" on="0"/>
      </contour>
      <contour>
        <pt x="489" y="170" on="1"/>
        <pt x="489" y="172" on="0"/>
        <pt x="532" y="330" on="1"/>
        <pt x="343" y="330" on="1"/>
        <pt x="337" y="305" on="1"/>
        <pt x="330" y="282" on="0"/>
        <pt x="315" y="226" on="1"/>
        <pt x="300" y="171" on="1"/>
        <pt x="394" y="170" on="1"/>
      </contour>
    </TTGlyph>
    <TTGlyph name="o" xMin="28" yMin="-10" xMax="471" yMax="460">
      <contour>
        <pt x="471" y="313" on="0"/>
        <pt x="471" y="125" on="0"/>
        <pt x="345" y="-10" on="0"/>
        <pt x="250" y="-10" on="1"/>
        <pt x="223" y="-10" on="0"/>
        <pt x="215" y="-8" on="1"/>
        <pt x="141" y="6" on="0"/>
        <pt x="93" y="57" on="1"/>
        <pt x="28" y="122" on="0"/>
        <pt x="28" y="222" on="1"/>
        <pt x="28" y="311" on="0"/>
        <pt x="143" y="450" on="0"/>
        <pt x="232" y="460" on="1"/>
        <pt x="244" y="460" on="1"/>
        <pt x="275" y="460" on="0"/>
        <pt x="281" y="459" on="1"/>
        <pt x="363" y="445" on="0"/>
      </contour>
      <contour>
        <pt x="377" y="230" on="1"/>
        <pt x="377" y="301" on="0"/>
        <pt x="310" y="385" on="0"/>
        <pt x="248" y="385" on="1"/>
        <pt x="199" y="385" on="0"/>
        <pt x="162" y="350" on="1"/>
        <pt x="122" y="310" on="0"/>
        <pt x="122" y="230" on="1"/>
        <pt x="122" y="130" on="0"/>
        <pt x="182" y="88" on="1"/>
        <pt x="211" y="69" on="0"/>
        <pt x="250" y="69" on="1"/>
        <pt x="273" y="69" on="0"/>
        <pt x="289" y="74" on="1"/>
        <pt x="377" y="106" on="0"/>
      </contour>
    </TTGlyph>
    <TTGlyph name="one" xMin="83" yMin="0" xMax="430" yMax="678">
      <contour>
        <pt x="94" y="612" on="1"/>
        <pt x="219" y="618" on="0"/>
        <pt x="277" y="672" on="1"/>
        <pt x="284" y="678" on="1"/>
        <pt x="307" y="678" on="1"/>
        <pt x="307" y="73" on="1"/>
        <pt x="430" y="73" on="1"/>
        <pt x="430" y="0" on="1"/>
        <pt x="88" y="0" on="1"/>
        <pt x="88" y="73" on="1"/>
        <pt x="213" y="73" on="1"/>
        <pt x="213" y="317" on="1"/>
        <pt x="213" y="560" on="0"/>
        <pt x="212" y="560" on="1"/>
        <pt x="211" y="559" on="0"/>
        <pt x="198" y="555" on="1"/>
        <pt x="154" y="541" on="0"/>
        <pt x="96" y="540" on="1"/>
        <pt x="83" y="539" on="1"/>
        <pt x="83" y="612" on="1"/>
      </contour>
    </TTGlyph>
    <TTGlyph name="p" xMin="75" yMin="-194" xMax="483" yMax="455">
      <contour>
        <pt x="166" y="404" on="1"/>
        <pt x="238" y="455" on="0"/>
        <pt x="337" y="455" on="1"/>
        <pt x="358" y="455" on="0"/>
        <pt x="367" y="452" on="1"/>
        <pt x="419" y="436" on="0"/>
        <pt x="483" y="301" on="0"/>
        <pt x="483" y="222" on="1"/>
        <pt x="483" y="214" on="1"/>
        <pt x="480" y="130" on="0"/>
        <pt x="397" y="6" on="0"/>
        <pt x="331" y="-9" on="1"/>
        <pt x="325" y="-10" on="0"/>
        <pt x="306" y="-10" on="1"/>
        <pt x="234" y="-10" on="0"/>
        <pt x="177" y="32" on="1"/>
        <pt x="169" y="38" on="0"/>
        <pt x="168" y="38" on="1"/>
        <pt x="168" y="-194" on="1"/>
        <pt x="75" y="-194" on="1"/>
        <pt x="75" y="444" on="1"/>
        <pt x="165" y="444" on="1"/>
        <pt x="165" y="424" on="1"/>
      </contour>
      <contour>
        <pt x="390" y="222" on="1"/>
        <pt x="390" y="284" on="0"/>
        <pt x="320" y="376" on="0"/>
        <pt x="266" y="376" on="1"/>
        <pt x="215" y="376" on="0"/>
        <pt x="177" y="340" on="1"/>
        <pt x="168" y="332" on="1"/>
        <pt x="168" y="118" on="1"/>
        <pt x="200" y="66" on="0"/>
        <pt x="257" y="66" on="1"/>
        <pt x="274" y="66" on="0"/>
        <pt x="279" y="67" on="1"/>
        <pt x="326" y="78" on="0"/>
        <pt x="390" y="162" on="0"/>
      </contour>
    </TTGlyph>
    <TTGlyph name="parenleft" xMin="74" yMin="-250" xMax="333" yMax="750">
      <contour>
        <pt x="74" y="-64" on="0"/>
        <pt x="74" y="564" on="0"/>
        <pt x="240" y="733" on="1"/>
        <pt x="257" y="750" on="1"/>
        <pt x="333" y="750" on="1"/>
        <pt x="323" y="739" on="1"/>
        <pt x="167" y="573" on="0"/>
        <pt x="167" y="-73" on="0"/>
        <pt x="323" y="-239" on="1"/>
        <pt x="333" y="-250" on="1"/>
        <pt x="257" y="-250" on="1"/>
        <pt x="240" y="-233" on="1"/>
      </contour>
    </TTGlyph>
    <TTGlyph name="parenright" xMin="55" yMin="-250" xMax="314" yMax="750">
      <contour>
        <pt x="221" y="-73" on="0"/>
        <pt x="221" y="573" on="0"/>
        <pt x="65" y="739" on="1"/>
        <pt x="55" y="750" on="1"/>
        <pt x="131" y="750" on="1"/>
        <pt x="148" y="733" on="1"/>
        <pt x="314" y="567" on="0"/>
        <pt x="314" y="-67" on="0"/>
        <pt x="148" y="-233" on="1"/>
        <pt x="131" y="-250" on="1"/>
        <pt x="55" y="-250" on="1"/>
        <pt x="65" y="-239" on="1"/>
      </contour>
    </TTGlyph>
    <TTGlyph name="percent" xMin="56" yMin="-56" xMax="776" yMax="750">
      <contour>
        <pt x="195" y="750" on="1"/>
        <pt x="251" y="750" on="0"/>
        <pt x="332" y="633" on="0"/>
        <pt x="332" y="548" on="1"/>
        <pt x="332" y="446" on="0"/>
        <pt x="276" y="385" on="1"/>
        <pt x="239" y="347" on="0"/>
        <pt x="195" y="347" on="1"/>
        <pt x="123" y="347" on="0"/>
        <pt x="80" y="434" on="1"/>
        <pt x="56" y="484" on="0"/>
        <pt x="56" y="549" on="1"/>
        <pt x="56" y="646" on="0"/>
        <pt x="108" y="706" on="1"/>
        <pt x="145" y="750" on="0"/>
      </contour>
      <contour>
        <pt x="206" y="672" on="1"/>
        <pt x="198" y="674" on="0"/>
        <pt x="195" y="674" on="1"/>
        <pt x="173" y="674" on="0"/>
        <pt x="159" y="646" on="1"/>
        <pt x="145" y="615" on="0"/>
        <pt x="145" y="549" on="1"/>
        <pt x="145" y="481" on="0"/>
        <pt x="173" y="423" on="0"/>
        <pt x="195" y="423" on="1"/>
        <pt x="198" y="423" on="0"/>
        <pt x="206" y="425" on="1"/>
        <pt x="232" y="435" on="0"/>
        <pt x="243" y="492" on="1"/>
        <pt x="248" y="511" on="0"/>
        <pt x="248" y="549" on="1"/>
        <pt x="248" y="586" on="0"/>
        <pt x="243" y="605" on="1"/>
        <pt x="232" y="662" on="0"/>
      </contour>
      <contour>
        <pt x="197" y="-56" on="1"/>
        <pt x="189" y="-56" on="0"/>
        <pt x="176" y="-43" on="0"/>
        <pt x="176" y="-35" on="1"/>
        <pt x="176" y="-33" on="0"/>
        <pt x="178" y="-27" on="1"/>
        <pt x="179" y="-25" on="0"/>
        <pt x="620" y="737" on="0"/>
        <pt x="623" y="741" on="1"/>
        <pt x="627" y="750" on="0"/>
        <pt x="639" y="750" on="1"/>
        <pt x="648" y="750" on="0"/>
        <pt x="660" y="738" on="0"/>
        <pt x="659" y="729" on="1"/>
        <pt x="657" y="721" on="0"/>
        <pt x="212" y="-49" on="0"/>
        <pt x="207" y="-52" on="1"/>
        <pt x="203" y="-56" on="0"/>
      </contour>
      <contour>
        <pt x="639" y="347" on="1"/>
        <pt x="696" y="347" on="0"/>
        <pt x="776" y="229" on="0"/>
        <pt x="776" y="146" on="1"/>
        <pt x="776" y="74" on="0"/>
        <pt x="718" y="-33" on="0"/>
        <pt x="672" y="-50" on="1"/>
        <pt x="656" y="-56" on="0"/>
        <pt x="639" y="-56" on="1"/>
        <pt x="599" y="-56" on="0"/>
        <pt x="530" y="7" on="0"/>
        <pt x="513" y="59" on="1"/>
        <pt x="500" y="97" on="0"/>
        <pt x="500" y="146" on="1"/>
        <pt x="500" y="242" on="0"/>
        <pt x="552" y="303" on="1"/>
        <pt x="589" y="347" on="0"/>
      </contour>
      <contour>
        <pt x="650" y="269" on="1"/>
        <pt x="642" y="271" on="0"/>
        <pt x="639" y="271" on="1"/>
        <pt x="617" y="271" on="0"/>
        <pt x="603" y="243" on="1"/>
        <pt x="589" y="212" on="0"/>
        <pt x="589" y="146" on="1"/>
        <pt x="589" y="78" on="0"/>
        <pt x="617" y="20" on="0"/>
        <pt x="639" y="20" on="1"/>
        <pt x="642" y="20" on="0"/>
        <pt x="650" y="22" on="1"/>
        <pt x="676" y="32" on="0"/>
        <pt x="687" y="89" on="1"/>
        <pt x="692" y="108" on="0"/>
        <pt x="692" y="146" on="1"/>
        <pt x="692" y="183" on="0"/>
        <pt x="687" y="202" on="1"/>
        <pt x="676" y="259" on="0"/>
      </contour>
    </TTGlyph>
    <TTGlyph name="period" xMin="90" yMin="0" xMax="188" yMax="98">
      <contour>
        <pt x="90" y="0" on="1"/>
        <pt x="90" y="98" on="1"/>
        <pt x="188" y="98" on="1"/>
        <pt x="188" y="0" on="1"/>
      </contour>
    </TTGlyph>
    <TTGlyph name="plus" xMin="56" yMin="-82" xMax="722" yMax="583">
      <contour>
        <pt x="56" y="237" on="0"/>
        <pt x="56" y="263" on="0"/>
        <pt x="70" y="270" on="1"/>
        <pt x="369" y="270" on="1"/>
        <pt x="369" y="420" on="1"/>
        <pt x="370" y="570" on="1"/>
        <pt x="380" y="583" on="0"/>
        <pt x="389" y="583" on="1"/>
        <pt x="402" y="583" on="0"/>
        <pt x="409" y="568" on="1"/>
        <pt x="409" y="270" on="1"/>
        <pt x="707" y="270" on="1"/>
        <pt x="722" y="262" on="0"/>
        <pt x="722" y="238" on="0"/>
        <pt x="707" y="230" on="1"/>
        <pt x="409" y="230" on="1"/>
        <pt x="409" y="-68" on="1"/>
        <pt x="402" y="-82" on="0"/>
        <pt x="376" y="-82" on="0"/>
        <pt x="369" y="-68" on="1"/>
        <pt x="369" y="230" on="1"/>
        <pt x="70" y="230" on="1"/>
      </contour>
    </TTGlyph>
    <TTGlyph name="q" xMin="33" yMin="-194" xMax="441" yMax="455">
      <contour>
        <pt x="33" y="220" on="1"/>
        <pt x="33" y="313" on="0"/>
        <pt x="126" y="445" on="0"/>
        <pt x="195" y="454" on="1"/>
        <pt x="206" y="454" on="1"/>
        <pt x="235" y="454" on="0"/>
        <pt x="241" y="453" on="1"/>
        <pt x="299" y="442" on="0"/>
        <pt x="341" y="406" on="1"/>
        <pt x="351" y="398" on="1"/>
        <pt x="351" y="455" on="1"/>
        <pt x="441" y="455" on="1"/>
        <pt x="441" y="-194" on="1"/>
        <pt x="348" y="-194" on="1"/>
        <pt x="348" y="41" on="1"/>
        <pt x="338" y="35" on="1"/>
        <pt x="276" y="-8" on="0"/>
        <pt x="198" y="-11" on="1"/>
        <pt x="171" y="-11" on="0"/>
        <pt x="154" y="-5" on="1"/>
        <pt x="102" y="11" on="0"/>
        <pt x="33" y="141" on="0"/>
      </contour>
      <contour>
        <pt x="351" y="298" on="1"/>
        <pt x="336" y="335" on="0"/>
        <pt x="295" y="375" on="0"/>
        <pt x="256" y="375" on="1"/>
        <pt x="231" y="375" on="0"/>
        <pt x="207" y="363" on="1"/>
        <pt x="170" y="344" on="0"/>
        <pt x="126" y="267" on="0"/>
        <pt x="126" y="220" on="1"/>
        <pt x="126" y="155" on="0"/>
        <pt x="199" y="65" on="0"/>
        <pt x="251" y="65" on="1"/>
        <pt x="308" y="65" on="0"/>
        <pt x="345" y="115" on="1"/>
        <pt x="351" y="123" on="1"/>
      </contour>
    </TTGlyph>
    <TTGlyph name="question" xMin="55" yMin="0" xMax="416" yMax="704">
      <contour>
        <pt x="83" y="576" on="1"/>
        <pt x="83" y="577" on="0"/>
        <pt x="56" y="651" on="0"/>
        <pt x="55" y="652" on="1"/>
        <pt x="55" y="656" on="0"/>
        <pt x="94" y="675" on="1"/>
        <pt x="154" y="704" on="0"/>
        <pt x="214" y="704" on="1"/>
        <pt x="254" y="704" on="0"/>
        <pt x="265" y="703" on="1"/>
        <pt x="335" y="694" on="0"/>
        <pt x="416" y="615" on="0"/>
        <pt x="416" y="546" on="1"/>
        <pt x="416" y="474" on="0"/>
        <pt x="360" y="426" on="1"/>
        <pt x="273" y="351" on="0"/>
        <pt x="262" y="255" on="1"/>
        <pt x="261" y="249" on="0"/>
        <pt x="261" y="216" on="1"/>
        <pt x="261" y="186" on="1"/>
        <pt x="183" y="186" on="1"/>
        <pt x="183" y="225" on="1"/>
        <pt x="184" y="281" on="0"/>
        <pt x="194" y="322" on="1"/>
        <pt x="219" y="419" on="0"/>
        <pt x="292" y="483" on="1"/>
        <pt x="294" y="485" on="0"/>
        <pt x="304" y="494" on="0"/>
        <pt x="306" y="495" on="1"/>
        <pt x="323" y="517" on="0"/>
        <pt x="323" y="550" on="1"/>
        <pt x="323" y="594" on="0"/>
        <pt x="274" y="629" on="0"/>
        <pt x="223" y="629" on="1"/>
        <pt x="187" y="629" on="0"/>
        <pt x="157" y="618" on="1"/>
        <pt x="122" y="607" on="0"/>
        <pt x="91" y="583" on="1"/>
      </contour>
      <contour>
        <pt x="173" y="0" on="1"/>
        <pt x="173" y="98" on="1"/>
        <pt x="271" y="98" on="1"/>
        <pt x="271" y="0" on="1"/>
      </contour>
    </TTGlyph>
    <TTGlyph name="quotedbl" xMin="32" yMin="471" xMax="325" yMax="694">
      <contour>
        <pt x="33" y="596" on="1"/>
        <pt x="33" y="694" on="1"/>
        <pt x="131" y="694" on="1"/>
        <pt x="131" y="597" on="1"/>
        <pt x="114" y="555" on="0"/>
        <pt x="82" y="471" on="1"/>
        <pt x="32" y="471" on="1"/>
        <pt x="47" y="532" on="1"/>
        <pt x="62" y="593" on="0"/>
        <pt x="63" y="594" on="1"/>
        <pt x="63" y="596" on="0"/>
        <pt x="48" y="596" on="1"/>
      </contour>
      <contour>
        <pt x="227" y="596" on="1"/>
        <pt x="227" y="694" on="1"/>
        <pt x="325" y="694" on="1"/>
        <pt x="325" y="597" on="1"/>
        <pt x="308" y="555" on="0"/>
        <pt x="276" y="471" on="1"/>
        <pt x="226" y="471" on="1"/>
        <pt x="241" y="532" on="1"/>
        <pt x="256" y="593" on="0"/>
        <pt x="257" y="594" on="1"/>
        <pt x="257" y="596" on="0"/>
        <pt x="242" y="596" on="1"/>
      </contour>
    </TTGlyph>
    <TTGlyph name="quotedblleft" xMin="174" yMin="471" xMax="467" yMax="694">
      <contour>
        <pt x="174" y="568" on="1"/>
        <pt x="182" y="589" on="0"/>
        <pt x="216" y="673" on="0"/>
        <pt x="224" y="694" on="1"/>
        <pt x="273" y="694" on="1"/>
        <pt x="258" y="633" on="1"/>
        <pt x="243" y="572" on="0"/>
        <pt x="242" y="571" on="1"/>
        <pt x="242" y="569" on="0"/>
        <pt x="257" y="569" on="1"/>
        <pt x="272" y="569" on="1"/>
        <pt x="272" y="471" on="1"/>
        <pt x="174" y="471" on="1"/>
      </contour>
      <contour>
        <pt x="368" y="568" on="1"/>
        <pt x="377" y="589" on="0"/>
        <pt x="410" y="673" on="0"/>
        <pt x="418" y="694" on="1"/>
        <pt x="467" y="694" on="1"/>
        <pt x="452" y="633" on="1"/>
        <pt x="437" y="572" on="0"/>
        <pt x="436" y="571" on="1"/>
        <pt x="436" y="569" on="0"/>
        <pt x="451" y="569" on="1"/>
        <pt x="466" y="569" on="1"/>
        <pt x="466" y="471" on="1"/>
        <pt x="368" y="471" on="1"/>
      </contour>
    </TTGlyph>
    <TTGlyph name="quotedblright" xMin="32" yMin="471" xMax="325" yMax="694">
      <contour>
        <pt x="33" y="596" on="1"/>
        <pt x="33" y="694" on="1"/>
        <pt x="131" y="694" on="1"/>
        <pt x="131" y="597" on="1"/>
        <pt x="114" y="555" on="0"/>
        <pt x="82" y="471" on="1"/>
        <pt x="32" y="471" on="1"/>
        <pt x="47" y="532" on="1"/>
        <pt x="62" y="593" on="0"/>
        <pt x="63" y="594" on="1"/>
        <pt x="63" y="596" on="0"/>
        <pt x="48" y="596" on="1"/>
      </contour>
      <contour>
        <pt x="227" y="596" on="1"/>
        <pt x="227" y="694" on="1"/>
        <pt x="325" y="694" on="1"/>
        <pt x="325" y="597" on="1"/>
        <pt x="308" y="555" on="0"/>
        <pt x="276" y="471" on="1"/>
        <pt x="226" y="471" on="1"/>
        <pt x="241" y="532" on="1"/>
        <pt x="256" y="593" on="0"/>
        <pt x="257" y="594" on="1"/>
        <pt x="257" y="596" on="0"/>
        <pt x="242" y="596" on="1"/>
      </contour>
    </TTGlyph>
    <TTGlyph name="quoteleft" xMin="90" yMin="471" xMax="189" yMax="694">
      <contour>
        <pt x="90" y="568" on="1"/>
        <pt x="98" y="589" on="0"/>
        <pt x="131" y="673" on="0"/>
        <pt x="140" y="694" on="1"/>
        <pt x="189" y="694" on="1"/>
        <pt x="174" y="633" on="1"/>
        <pt x="159" y="572" on="0"/>
        <pt x="158" y="571" on="1"/>
        <pt x="158" y="569" on="0"/>
        <pt x="173" y="569" on="1"/>
        <pt x="188" y="569" on="1"/>
        <pt x="188" y="471" on="1"/>
        <pt x="90" y="471" on="1"/>
      </contour>
    </TTGlyph>
    <TTGlyph name="quoteright" xMin="89" yMin="471" xMax="188" yMax="694">
      <contour>
        <pt x="90" y="596" on="1"/>
        <pt x="90" y="694" on="1"/>
        <pt x="188" y="694" on="1"/>
        <pt x="188" y="597" on="1"/>
        <pt x="171" y="555" on="0"/>
        <pt x="139" y="471" on="1"/>
        <pt x="89" y="471" on="1"/>
        <pt x="104" y="532" on="1"/>
        <pt x="119" y="593" on="0"/>
        <pt x="120" y="594" on="1"/>
        <pt x="120" y="596" on="0"/>
        <pt x="105" y="596" on="1"/>
      </contour>
    </TTGlyph>
    <TTGlyph name="quotesingle" xMin="89" yMin="471" xMax="188" yMax="694">
      <contour>
        <pt x="90" y="596" on="1"/>
        <pt x="90" y="694" on="1"/>
        <pt x="188" y="694" on="1"/>
        <pt x="188" y="597" on="1"/>
        <pt x="171" y="555" on="0"/>
        <pt x="139" y="471" on="1"/>
        <pt x="89" y="471" on="1"/>
        <pt x="104" y="532" on="1"/>
        <pt x="119" y="593" on="0"/>
        <pt x="120" y="594" on="1"/>
        <pt x="120" y="596" on="0"/>
        <pt x="105" y="596" on="1"/>
      </contour>
    </TTGlyph>
    <TTGlyph name="r" xMin="74" yMin="0" xMax="327" yMax="455">
      <contour>
        <pt x="171" y="389" on="1"/>
        <pt x="237" y="455" on="0"/>
        <pt x="320" y="455" on="1"/>
        <pt x="327" y="455" on="1"/>
        <pt x="327" y="373" on="1"/>
        <pt x="317" y="373" on="1"/>
        <pt x="261" y="369" on="0"/>
        <pt x="177" y="301" on="0"/>
        <pt x="167" y="248" on="1"/>
        <pt x="165" y="239" on="0"/>
        <pt x="164" y="119" on="1"/>
        <pt x="164" y="0" on="1"/>
        <pt x="74" y="0" on="1"/>
        <pt x="74" y="450" on="1"/>
        <pt x="159" y="450" on="1"/>
        <pt x="159" y="377" on="1"/>
      </contour>
    </TTGlyph>
    <TTGlyph name="s" xMin="28" yMin="-10" xMax="360" yMax="460">
      <contour>
        <pt x="28" y="35" on="1"/>
        <pt x="29" y="36" on="0"/>
        <pt x="36" y="76" on="0"/>
        <pt x="42" y="115" on="0"/>
        <pt x="43" y="115" on="1"/>
        <pt x="53" y="109" on="1"/>
        <pt x="122" y="68" on="0"/>
        <pt x="193" y="68" on="1"/>
        <pt x="256" y="68" on="0"/>
        <pt x="271" y="106" on="1"/>
        <pt x="274" y="115" on="0"/>
        <pt x="274" y="123" on="1"/>
        <pt x="274" y="152" on="0"/>
        <pt x="248" y="167" on="1"/>
        <pt x="235" y="177" on="0"/>
        <pt x="187" y="186" on="1"/>
        <pt x="135" y="197" on="0"/>
        <pt x="115" y="207" on="1"/>
        <pt x="66" y="229" on="0"/>
        <pt x="46" y="273" on="1"/>
        <pt x="33" y="298" on="0"/>
        <pt x="33" y="326" on="1"/>
        <pt x="33" y="383" on="0"/>
        <pt x="101" y="452" on="0"/>
        <pt x="162" y="459" on="1"/>
        <pt x="167" y="460" on="0"/>
        <pt x="175" y="460" on="1"/>
        <pt x="190" y="460" on="1"/>
        <pt x="272" y="460" on="0"/>
        <pt x="345" y="429" on="1"/>
        <pt x="345" y="428" on="0"/>
        <pt x="338" y="388" on="1"/>
        <pt x="331" y="349" on="1"/>
        <pt x="325" y="352" on="0"/>
        <pt x="318" y="356" on="1"/>
        <pt x="258" y="386" on="0"/>
        <pt x="188" y="386" on="1"/>
        <pt x="138" y="386" on="0"/>
        <pt x="125" y="360" on="1"/>
        <pt x="119" y="348" on="0"/>
        <pt x="119" y="336" on="1"/>
        <pt x="119" y="307" on="0"/>
        <pt x="148" y="292" on="1"/>
        <pt x="158" y="287" on="0"/>
        <pt x="207" y="277" on="1"/>
        <pt x="255" y="268" on="0"/>
        <pt x="278" y="256" on="1"/>
        <pt x="333" y="227" on="0"/>
        <pt x="352" y="175" on="1"/>
        <pt x="360" y="153" on="0"/>
        <pt x="360" y="130" on="1"/>
        <pt x="360" y="62" on="0"/>
        <pt x="273" y="-10" on="0"/>
        <pt x="195" y="-10" on="1"/>
        <pt x="119" y="-10" on="0"/>
        <pt x="46" y="24" on="1"/>
        <pt x="28" y="32" on="0"/>
      </contour>
    </TTGlyph>
    <TTGlyph name="semicolon" xMin="89" yMin="-125" xMax="188" yMax="444">
      <contour>
        <pt x="90" y="346" on="1"/>
        <pt x="90" y="444" on="1"/>
        <pt x="188" y="444" on="1"/>
        <pt x="188" y="346" on="1"/>
      </contour>
      <contour>
        <pt x="90" y="0" on="1"/>
        <pt x="90" y="98" on="1"/>
        <pt x="188" y="98" on="1"/>
        <pt x="188" y="1" on="1"/>
        <pt x="171" y="-41" on="0"/>
        <pt x="139" y="-125" on="1"/>
        <pt x="89" y="-125" on="1"/>
        <pt x="104" y="-64" on="1"/>
        <pt x="119" y="-3" on="0"/>
        <pt x="120" y="-2" on="1"/>
        <pt x="120" y="0" on="0"/>
        <pt x="105" y="0" on="1"/>
      </contour>
    </TTGlyph>
    <TTGlyph name="seven" xMin="42" yMin="-11" xMax="457" yMax="656">
      <contour>
        <pt x="42" y="570" on="1"/>
        <pt x="42" y="656" on="1"/>
        <pt x="457" y="656" on="1"/>
        <pt x="457" y="577" on="1"/>
        <pt x="447" y="564" on="1"/>
        <pt x="284" y="364" on="0"/>
        <pt x="251" y="103" on="1"/>
        <pt x="244" y="45" on="0"/>
        <pt x="244" y="0" on="1"/>
        <pt x="244" y="-11" on="1"/>
        <pt x="145" y="-11" on="1"/>
        <pt x="145" y="12" on="1"/>
        <pt x="149" y="85" on="0"/>
        <pt x="157" y="132" on="1"/>
        <pt x="197" y="371" on="0"/>
        <pt x="356" y="550" on="1"/>
        <pt x="361" y="556" on="0"/>
        <pt x="372" y="569" on="0"/>
        <pt x="374" y="571" on="1"/>
        <pt x="208" y="570" on="1"/>
      </contour>
    </TTGlyph>
    <TTGlyph name="six" xMin="42" yMin="-22" xMax="457" yMax="677">
      <contour>
        <pt x="301" y="677" on="1"/>
        <pt x="355" y="677" on="0"/>
        <pt x="408" y="658" on="1"/>
        <pt x="408" y="621" on="1"/>
        <pt x="408" y="585" on="0"/>
        <pt x="407" y="585" on="1"/>
        <pt x="406" y="585" on="1"/>
        <pt x="359" y="605" on="0"/>
        <pt x="308" y="605" on="1"/>
        <pt x="246" y="605" on="0"/>
        <pt x="159" y="506" on="0"/>
        <pt x="146" y="421" on="1"/>
        <pt x="143" y="403" on="0"/>
        <pt x="144" y="403" on="1"/>
        <pt x="145" y="402" on="0"/>
        <pt x="152" y="409" on="1"/>
        <pt x="206" y="459" on="0"/>
        <pt x="279" y="468" on="1"/>
        <pt x="285" y="469" on="0"/>
        <pt x="299" y="469" on="1"/>
        <pt x="315" y="469" on="0"/>
        <pt x="329" y="467" on="1"/>
        <pt x="372" y="459" on="0"/>
        <pt x="407" y="405" on="1"/>
        <pt x="457" y="330" on="0"/>
        <pt x="457" y="226" on="1"/>
        <pt x="457" y="126" on="0"/>
        <pt x="402" y="57" on="1"/>
        <pt x="369" y="15" on="0"/>
        <pt x="300" y="-22" on="0"/>
        <pt x="251" y="-22" on="1"/>
        <pt x="188" y="-22" on="0"/>
        <pt x="138" y="20" on="1"/>
        <pt x="92" y="59" on="0"/>
        <pt x="42" y="218" on="0"/>
        <pt x="42" y="318" on="1"/>
        <pt x="42" y="445" on="0"/>
        <pt x="145" y="630" on="0"/>
        <pt x="233" y="664" on="1"/>
        <pt x="266" y="677" on="0"/>
        <pt x="289" y="677" on="1"/>
      </contour>
      <contour>
        <pt x="277" y="392" on="1"/>
        <pt x="275" y="392" on="0"/>
        <pt x="264" y="393" on="0"/>
        <pt x="260" y="393" on="1"/>
        <pt x="245" y="393" on="0"/>
        <pt x="235" y="391" on="1"/>
        <pt x="194" y="383" on="0"/>
        <pt x="141" y="299" on="0"/>
        <pt x="141" y="243" on="1"/>
        <pt x="141" y="153" on="0"/>
        <pt x="172" y="104" on="1"/>
        <pt x="192" y="68" on="0"/>
        <pt x="230" y="56" on="1"/>
        <pt x="238" y="54" on="0"/>
        <pt x="251" y="54" on="1"/>
        <pt x="262" y="54" on="0"/>
        <pt x="274" y="56" on="1"/>
        <pt x="317" y="66" on="0"/>
        <pt x="342" y="116" on="1"/>
        <pt x="360" y="152" on="0"/>
        <pt x="360" y="226" on="1"/>
        <pt x="360" y="297" on="0"/>
        <pt x="344" y="332" on="1"/>
        <pt x="320" y="382" on="0"/>
      </contour>
    </TTGlyph>
    <TTGlyph name="slash" xMin="56" yMin="-250" xMax="444" yMax="750">
      <contour>
        <pt x="75" y="-250" on="1"/>
        <pt x="68" y="-250" on="0"/>
        <pt x="56" y="-238" on="0"/>
        <pt x="56" y="-231" on="1"/>
        <pt x="56" y="-221" on="0"/>
        <pt x="404" y="736" on="0"/>
        <pt x="407" y="740" on="1"/>
        <pt x="412" y="750" on="0"/>
        <pt x="425" y="750" on="1"/>
        <pt x="433" y="749" on="0"/>
        <pt x="445" y="737" on="0"/>
        <pt x="444" y="730" on="1"/>
        <pt x="444" y="725" on="0"/>
        <pt x="97" y="-230" on="0"/>
        <pt x="92" y="-240" on="1"/>
        <pt x="85" y="-250" on="0"/>
      </contour>
    </TTGlyph>
    <TTGlyph name="t" xMin="18" yMin="-10" xMax="333" yMax="571">
      <contour>
        <pt x="314" y="98" on="1"/>
        <pt x="333" y="27" on="1"/>
        <pt x="333" y="25" on="0"/>
        <pt x="301" y="11" on="1"/>
        <pt x="242" y="-10" on="0"/>
        <pt x="184" y="-10" on="1"/>
        <pt x="172" y="-10" on="1"/>
        <pt x="158" y="-10" on="0"/>
        <pt x="146" y="-3" on="1"/>
        <pt x="107" y="23" on="0"/>
        <pt x="99" y="91" on="1"/>
        <pt x="95" y="113" on="0"/>
        <pt x="95" y="251" on="1"/>
        <pt x="95" y="371" on="1"/>
        <pt x="18" y="371" on="1"/>
        <pt x="18" y="444" on="1"/>
        <pt x="98" y="444" on="1"/>
        <pt x="98" y="571" on="1"/>
        <pt x="182" y="571" on="1"/>
        <pt x="182" y="444" on="1"/>
        <pt x="316" y="444" on="1"/>
        <pt x="316" y="371" on="1"/>
        <pt x="182" y="371" on="1"/>
        <pt x="182" y="253" on="1"/>
        <pt x="183" y="134" on="0"/>
        <pt x="185" y="123" on="1"/>
        <pt x="193" y="79" on="0"/>
        <pt x="216" y="70" on="1"/>
        <pt x="221" y="68" on="0"/>
        <pt x="234" y="68" on="1"/>
        <pt x="277" y="71" on="0"/>
      </contour>
    </TTGlyph>
    <TTGlyph name="three" xMin="42" yMin="-22" xMax="457" yMax="678">
      <contour>
        <pt x="242" y="54" on="1"/>
        <pt x="293" y="54" on="0"/>
        <pt x="353" y="126" on="0"/>
        <pt x="353" y="184" on="1"/>
        <pt x="353" y="237" on="0"/>
        <pt x="303" y="305" on="0"/>
        <pt x="260" y="315" on="1"/>
        <pt x="213" y="316" on="1"/>
        <pt x="166" y="316" on="1"/>
        <pt x="166" y="354" on="1"/>
        <pt x="166" y="392" on="0"/>
        <pt x="167" y="392" on="1"/>
        <pt x="182" y="393" on="0"/>
        <pt x="199" y="395" on="1"/>
        <pt x="239" y="397" on="0"/>
        <pt x="257" y="405" on="1"/>
        <pt x="290" y="419" on="0"/>
        <pt x="333" y="480" on="0"/>
        <pt x="333" y="521" on="1"/>
        <pt x="333" y="561" on="0"/>
        <pt x="285" y="604" on="0"/>
        <pt x="243" y="604" on="1"/>
        <pt x="193" y="604" on="0"/>
        <pt x="156" y="578" on="1"/>
        <pt x="126" y="559" on="0"/>
        <pt x="99" y="514" on="1"/>
        <pt x="78" y="546" on="1"/>
        <pt x="56" y="577" on="0"/>
        <pt x="56" y="579" on="1"/>
        <pt x="54" y="581" on="0"/>
        <pt x="87" y="617" on="0"/>
        <pt x="100" y="627" on="1"/>
        <pt x="153" y="669" on="0"/>
        <pt x="222" y="677" on="1"/>
        <pt x="224" y="677" on="0"/>
        <pt x="238" y="678" on="0"/>
        <pt x="242" y="678" on="1"/>
        <pt x="245" y="678" on="1"/>
        <pt x="308" y="678" on="0"/>
        <pt x="407" y="613" on="0"/>
        <pt x="424" y="561" on="1"/>
        <pt x="430" y="541" on="0"/>
        <pt x="430" y="520" on="1"/>
        <pt x="430" y="462" on="0"/>
        <pt x="393" y="411" on="1"/>
        <pt x="376" y="387" on="0"/>
        <pt x="328" y="353" on="1"/>
        <pt x="369" y="333" on="0"/>
        <pt x="373" y="330" on="1"/>
        <pt x="445" y="281" on="0"/>
        <pt x="456" y="205" on="1"/>
        <pt x="457" y="198" on="0"/>
        <pt x="457" y="184" on="1"/>
        <pt x="457" y="98" on="0"/>
        <pt x="330" y="-22" on="0"/>
        <pt x="242" y="-22" on="1"/>
        <pt x="131" y="-22" on="0"/>
        <pt x="51" y="58" on="1"/>
        <pt x="42" y="68" on="1"/>
        <pt x="49" y="105" on="1"/>
        <pt x="55" y="142" on="1"/>
        <pt x="82" y="115" on="0"/>
        <pt x="88" y="110" on="1"/>
        <pt x="157" y="54" on="0"/>
      </contour>
    </TTGlyph>
    <TTGlyph name="tildecomb" xMin="-417" yMin="543" xMax="-84" yMax="677">
      <contour>
        <pt x="-417" y="554" on="1"/>
        <pt x="-414" y="606" on="0"/>
        <pt x="-358" y="677" on="0"/>
        <pt x="-314" y="677" on="1"/>
        <pt x="-288" y="677" on="0"/>
        <pt x="-252" y="650" on="1"/>
        <pt x="-218" y="625" on="0"/>
        <pt x="-199" y="621" on="1"/>
        <pt x="-195" y="620" on="0"/>
        <pt x="-188" y="620" on="1"/>
        <pt x="-163" y="620" on="0"/>
        <pt x="-160" y="665" on="1"/>
        <pt x="-160" y="677" on="1"/>
        <pt x="-84" y="677" on="1"/>
        <pt x="-84" y="666" on="1"/>
        <pt x="-87" y="614" on="0"/>
        <pt x="-142" y="543" on="0"/>
        <pt x="-185" y="543" on="1"/>
        <pt x="-212" y="543" on="0"/>
        <pt x="-249" y="570" on="1"/>
        <pt x="-283" y="595" on="0"/>
        <pt x="-302" y="599" on="1"/>
        <pt x="-306" y="600" on="0"/>
        <pt x="-313" y="600" on="1"/>
        <pt x="-338" y="600" on="0"/>
        <pt x="-341" y="555" on="1"/>
        <pt x="-341" y="543" on="1"/>
        <pt x="-417" y="543" on="1"/>
      </contour>
    </TTGlyph>
    <TTGlyph name="two" xMin="42" yMin="0" xMax="449" yMax="677">
      <contour>
        <pt x="351" y="456" on="1"/>
        <pt x="351" y="516" on="0"/>
        <pt x="280" y="599" on="0"/>
        <pt x="222" y="599" on="1"/>
        <pt x="175" y="599" on="0"/>
        <pt x="114" y="539" on="0"/>
        <pt x="97" y="475" on="1"/>
        <pt x="93" y="459" on="1"/>
        <pt x="67" y="492" on="1"/>
        <pt x="42" y="526" on="1"/>
        <pt x="47" y="539" on="1"/>
        <pt x="92" y="663" on="0"/>
        <pt x="211" y="677" on="1"/>
        <pt x="225" y="677" on="1"/>
        <pt x="303" y="677" on="0"/>
        <pt x="355" y="644" on="1"/>
        <pt x="449" y="580" on="0"/>
        <pt x="449" y="454" on="1"/>
        <pt x="449" y="439" on="0"/>
        <pt x="447" y="425" on="1"/>
        <pt x="434" y="359" on="0"/>
        <pt x="361" y="290" on="1"/>
        <pt x="352" y="281" on="0"/>
        <pt x="310" y="245" on="1"/>
        <pt x="272" y="213" on="0"/>
        <pt x="199" y="144" on="1"/>
        <pt x="148" y="96" on="0"/>
        <pt x="137" y="85" on="1"/>
        <pt x="293" y="86" on="1"/>
        <pt x="449" y="86" on="1"/>
        <pt x="449" y="0" on="1"/>
        <pt x="50" y="0" on="1"/>
        <pt x="50" y="79" on="1"/>
        <pt x="119" y="147" on="1"/>
        <pt x="163" y="192" on="0"/>
        <pt x="216" y="242" on="1"/>
        <pt x="275" y="295" on="0"/>
        <pt x="302" y="329" on="1"/>
        <pt x="351" y="388" on="0"/>
      </contour>
    </TTGlyph>
    <TTGlyph name="u" xMin="73" yMin="-10" xMax="443" yMax="444">
      <contour>
        <pt x="73" y="268" on="1"/>
        <pt x="73" y="444" on="1"/>
        <pt x="166" y="444" on="1"/>
        <pt x="166" y="268" on="1"/>
        <pt x="167" y="92" on="1"/>
        <pt x="173" y="71" on="0"/>
        <pt x="204" y="59" on="0"/>
        <pt x="238" y="59" on="1"/>
        <pt x="317" y="59" on="0"/>
        <pt x="344" y="116" on="1"/>
        <pt x="349" y="128" on="0"/>
        <pt x="350" y="168" on="0"/>
        <pt x="350" y="291" on="1"/>
        <pt x="350" y="444" on="1"/>
        <pt x="443" y="444" on="1"/>
        <pt x="443" y="0" on="1"/>
        <pt x="353" y="0" on="1"/>
        <pt x="353" y="39" on="1"/>
        <pt x="346" y="35" on="1"/>
        <pt x="278" y="-10" on="0"/>
        <pt x="168" y="-10" on="1"/>
        <pt x="136" y="-10" on="0"/>
        <pt x="118" y="-1" on="1"/>
        <pt x="80" y="18" on="0"/>
        <pt x="74" y="81" on="1"/>
        <pt x="73" y="89" on="0"/>
      </contour>
    </TTGlyph>
    <TTGlyph name="underscore" xMin="0" yMin="-114" xMax="499" yMax="-38">
      <contour>
        <pt x="0" y="-114" on="1"/>
        <pt x="0" y="-38" on="1"/>
        <pt x="499" y="-38" on="1"/>
        <pt x="499" y="-114" on="1"/>
      </contour>
    </TTGlyph>
    <TTGlyph name="uni0237" xMin="-59" yMin="-205" xMax="192" yMax="444">
      <contour>
        <pt x="-35" y="-95" on="1"/>
        <pt x="-4" y="-126" on="0"/>
        <pt x="34" y="-126" on="1"/>
        <pt x="58" y="-126" on="0"/>
        <pt x="95" y="-105" on="0"/>
        <pt x="100" y="-88" on="1"/>
        <pt x="102" y="-82" on="0"/>
        <pt x="102" y="181" on="1"/>
        <pt x="102" y="444" on="1"/>
        <pt x="192" y="444" on="1"/>
        <pt x="192" y="180" on="1"/>
        <pt x="191" y="-45" on="0"/>
        <pt x="190" y="-95" on="0"/>
        <pt x="184" y="-113" on="1"/>
        <pt x="171" y="-153" on="0"/>
        <pt x="108" y="-205" on="0"/>
        <pt x="63" y="-205" on="1"/>
        <pt x="23" y="-205" on="0"/>
        <pt x="-25" y="-188" on="1"/>
        <pt x="-59" y="-175" on="0"/>
        <pt x="-59" y="-171" on="1"/>
        <pt x="-47" y="-133" on="1"/>
      </contour>
    </TTGlyph>
    <TTGlyph name="uni0302" xMin="-421" yMin="527" xMax="-80" yMax="694">
      <contour>
        <pt x="-354" y="612" on="1"/>
        <pt x="-288" y="694" on="1"/>
        <pt x="-213" y="694" on="1"/>
        <pt x="-147" y="612" on="1"/>
        <pt x="-83" y="532" on="0"/>
        <pt x="-80" y="529" on="1"/>
        <pt x="-79" y="528" on="0"/>
        <pt x="-82" y="527" on="1"/>
        <pt x="-86" y="527" on="0"/>
        <pt x="-117" y="527" on="1"/>
        <pt x="-155" y="527" on="1"/>
        <pt x="-219" y="601" on="0"/>
        <pt x="-250" y="639" on="1"/>
        <pt x="-256" y="633" on="0"/>
        <pt x="-301" y="580" on="1"/>
        <pt x="-346" y="527" on="1"/>
        <pt x="-384" y="527" on="1"/>
        <pt x="-421" y="528" on="0"/>
        <pt x="-421" y="529" on="1"/>
        <pt x="-418" y="532" on="0"/>
      </contour>
    </TTGlyph>
    <TTGlyph name="uni0304" xMin="-431" yMin="552" xMax="-70" yMax="631">
      <contour>
        <pt x="-431" y="552" on="1"/>
        <pt x="-431" y="631" on="1"/>
        <pt x="-70" y="631" on="1"/>
        <pt x="-70" y="552" on="1"/>
      </contour>
    </TTGlyph>
    <TTGlyph name="uni0306" xMin="-427" yMin="508" xMax="-74" yMax="694">
      <contour>
        <pt x="-292" y="591" on="0"/>
        <pt x="-208" y="591" on="0"/>
        <pt x="-153" y="646" on="0"/>
        <pt x="-150" y="685" on="1"/>
        <pt x="-150" y="694" on="1"/>
        <pt x="-74" y="694" on="1"/>
        <pt x="-74" y="689" on="1"/>
        <pt x="-74" y="637" on="0"/>
        <pt x="-127" y="553" on="0"/>
        <pt x="-166" y="530" on="1"/>
        <pt x="-207" y="508" on="0"/>
        <pt x="-250" y="508" on="1"/>
        <pt x="-294" y="508" on="0"/>
        <pt x="-335" y="530" on="1"/>
        <pt x="-373" y="553" on="0"/>
        <pt x="-427" y="638" on="0"/>
        <pt x="-427" y="689" on="1"/>
        <pt x="-427" y="694" on="1"/>
        <pt x="-351" y="694" on="1"/>
        <pt x="-351" y="685" on="1"/>
        <pt x="-348" y="646" on="0"/>
      </contour>
    </TTGlyph>
    <TTGlyph name="uni0307" xMin="-302" yMin="576" xMax="-198" yMax="680">
      <contour>
        <pt x="-302" y="576" on="1"/>
        <pt x="-302" y="680" on="1"/>
        <pt x="-198" y="680" on="1"/>
        <pt x="-198" y="576" on="1"/>
      </contour>
    </TTGlyph>
    <TTGlyph name="uni0308" xMin="-397" yMin="582" xMax="-104" yMax="680">
      <contour>
        <pt x="-397" y="582" on="1"/>
        <pt x="-397" y="680" on="1"/>
        <pt x="-299" y="680" on="1"/>
        <pt x="-299" y="582" on="1"/>
      </contour>
      <contour>
        <pt x="-202" y="582" on="1"/>
        <pt x="-202" y="680" on="1"/>
        <pt x="-104" y="680" on="1"/>
        <pt x="-104" y="582" on="1"/>
      </contour>
    </TTGlyph>
    <TTGlyph name="uni030A" xMin="-319" yMin="527" xMax="-99" yMax="694">
      <contour>
        <pt x="-317" y="631" on="1"/>
        <pt x="-307" y="658" on="0"/>
        <pt x="-248" y="694" on="0"/>
        <pt x="-211" y="694" on="1"/>
        <pt x="-183" y="694" on="0"/>
        <pt x="-155" y="684" on="1"/>
        <pt x="-114" y="666" on="0"/>
        <pt x="-101" y="631" on="1"/>
        <pt x="-99" y="623" on="0"/>
        <pt x="-99" y="611" on="1"/>
        <pt x="-99" y="598" on="0"/>
        <pt x="-101" y="591" on="1"/>
        <pt x="-111" y="562" on="0"/>
        <pt x="-172" y="527" on="0"/>
        <pt x="-209" y="527" on="1"/>
        <pt x="-249" y="527" on="0"/>
        <pt x="-307" y="563" on="0"/>
        <pt x="-317" y="591" on="1"/>
        <pt x="-319" y="598" on="0"/>
        <pt x="-319" y="611" on="1"/>
        <pt x="-319" y="623" on="0"/>
      </contour>
      <contour>
        <pt x="-155" y="610" on="1"/>
        <pt x="-155" y="651" on="0"/>
        <pt x="-215" y="651" on="1"/>
        <pt x="-263" y="651" on="0"/>
        <pt x="-263" y="610" on="1"/>
        <pt x="-263" y="570" on="0"/>
        <pt x="-155" y="570" on="0"/>
      </contour>
    </TTGlyph>
    <TTGlyph name="uni030B" xMin="-399" yMin="527" xMax="-84" yMax="694">
      <contour>
        <pt x="-399" y="527" on="1"/>
        <pt x="-343" y="694" on="0"/>
        <pt x="-343" y="694" on="1"/>
        <pt x="-296" y="694" on="1"/>
        <pt x="-250" y="694" on="0"/>
        <pt x="-250" y="693" on="1"/>
        <pt x="-253" y="686" on="0"/>
        <pt x="-321" y="534" on="0"/>
        <pt x="-323" y="527" on="1"/>
      </contour>
      <contour>
        <pt x="-233" y="527" on="1"/>
        <pt x="-177" y="694" on="0"/>
        <pt x="-177" y="694" on="1"/>
        <pt x="-130" y="694" on="1"/>
        <pt x="-84" y="694" on="0"/>
        <pt x="-84" y="693" on="1"/>
        <pt x="-87" y="686" on="0"/>
        <pt x="-155" y="534" on="0"/>
        <pt x="-157" y="527" on="1"/>
      </contour>
    </TTGlyph>
    <TTGlyph name="uni030C" xMin="-421" yMin="487" xMax="-80" yMax="654">
      <contour>
        <pt x="-421" y="652" on="1"/>
        <pt x="-422" y="653" on="0"/>
        <pt x="-419" y="654" on="1"/>
        <pt x="-415" y="654" on="0"/>
        <pt x="-384" y="654" on="1"/>
        <pt x="-346" y="654" on="1"/>
        <pt x="-301" y="601" on="1"/>
        <pt x="-256" y="548" on="0"/>
        <pt x="-250" y="542" on="1"/>
        <pt x="-219" y="580" on="0"/>
        <pt x="-155" y="654" on="1"/>
        <pt x="-117" y="654" on="1"/>
        <pt x="-80" y="653" on="0"/>
        <pt x="-80" y="652" on="1"/>
        <pt x="-83" y="649" on="0"/>
        <pt x="-147" y="569" on="1"/>
        <pt x="-213" y="487" on="1"/>
        <pt x="-288" y="487" on="1"/>
        <pt x="-354" y="569" on="1"/>
        <pt x="-418" y="649" on="0"/>
      </contour>
    </TTGlyph>
    <TTGlyph name="uniEFFD" xMin="0" yMin="0" xMax="300" yMax="100">
      <contour>
        <pt x="0" y="0" on="1"/>
        <pt x="0" y="100" on="1"/>
        <pt x="100" y="100" on="1"/>
        <pt x="100" y="0" on="1"/>
      </contour>
      <contour>
        <pt x="200" y="0" on="1"/>
        <pt x="200" y="100" on="1"/>
        <pt x="300" y="100" on="1"/>
        <pt x="300" y="0" on="1"/>
      </contour>
    </TTGlyph>
    <TTGlyph name="uniEFFE" xMin="0" yMin="0" xMax="300" yMax="100">
      <contour>
        <pt x="0" y="0" on="1"/>
        <pt x="0" y="100" on="1"/>
        <pt x="100" y="100" on="1"/>
        <pt x="100" y="0" on="1"/>
      </contour>
      <contour>
        <pt x="200" y="0" on="1"/>
        <pt x="200" y="100" on="1"/>
        <pt x="300" y="100" on="1"/>
        <pt x="300" y="0" on="1"/>
      </contour>
    </TTGlyph>
    <TTGlyph name="uniEFFF" xMin="0" yMin="0" xMax="100" yMax="100">
      <contour>
        <pt x="0" y="0" on="1"/>
        <pt x="0" y="100" on="1"/>
        <pt x="100" y="100" on="1"/>
        <pt x="100" y="0" on="1"/>
      </contour>
    </TTGlyph>
    <TTGlyph name="v" xMin="14" yMin="0" xMax="446" yMax="444">
      <contour>
        <pt x="178" y="0" on="1"/>
        <pt x="15" y="441" on="0"/>
        <pt x="14" y="442" on="1"/>
        <pt x="14" y="444" on="0"/>
        <pt x="60" y="444" on="1"/>
        <pt x="107" y="444" on="0"/>
        <pt x="107" y="442" on="1"/>
        <pt x="109" y="440" on="0"/>
        <pt x="127" y="388" on="1"/>
        <pt x="223" y="130" on="0"/>
        <pt x="232" y="67" on="1"/>
        <pt x="233" y="100" on="0"/>
        <pt x="325" y="366" on="0"/>
        <pt x="356" y="442" on="1"/>
        <pt x="356" y="444" on="0"/>
        <pt x="446" y="444" on="0"/>
        <pt x="446" y="442" on="1"/>
        <pt x="282" y="0" on="1"/>
      </contour>
    </TTGlyph>
    <TTGlyph name="w" xMin="14" yMin="0" xMax="668" yMax="444">
      <contour>
        <pt x="14" y="444" on="1"/>
        <pt x="105" y="444" on="1"/>
        <pt x="108" y="434" on="1"/>
        <pt x="192" y="160" on="0"/>
        <pt x="200" y="74" on="1"/>
        <pt x="200" y="65" on="1"/>
        <pt x="201" y="75" on="1"/>
        <pt x="206" y="144" on="0"/>
        <pt x="282" y="399" on="1"/>
        <pt x="296" y="444" on="1"/>
        <pt x="381" y="444" on="1"/>
        <pt x="399" y="381" on="1"/>
        <pt x="471" y="139" on="0"/>
        <pt x="478" y="82" on="1"/>
        <pt x="480" y="72" on="0"/>
        <pt x="480" y="69" on="1"/>
        <pt x="481" y="70" on="1"/>
        <pt x="481" y="82" on="0"/>
        <pt x="489" y="118" on="1"/>
        <pt x="504" y="190" on="0"/>
        <pt x="562" y="386" on="1"/>
        <pt x="580" y="444" on="1"/>
        <pt x="668" y="444" on="1"/>
        <pt x="638" y="344" on="0"/>
        <pt x="601" y="222" on="1"/>
        <pt x="534" y="1" on="1"/>
        <pt x="483" y="0" on="1"/>
        <pt x="432" y="0" on="1"/>
        <pt x="429" y="10" on="1"/>
        <pt x="343" y="294" on="0"/>
        <pt x="338" y="367" on="1"/>
        <pt x="337" y="377" on="1"/>
        <pt x="336" y="375" on="0"/>
        <pt x="336" y="370" on="1"/>
        <pt x="336" y="332" on="0"/>
        <pt x="299" y="194" on="1"/>
        <pt x="257" y="50" on="0"/>
        <pt x="245" y="11" on="1"/>
        <pt x="242" y="0" on="1"/>
        <pt x="195" y="0" on="1"/>
        <pt x="148" y="1" on="1"/>
        <pt x="81" y="222" on="1"/>
      </contour>
    </TTGlyph>
    <TTGlyph name="x" xMin="0" yMin="0" xMax="460" yMax="444">
      <contour>
        <pt x="187" y="229" on="1"/>
        <pt x="6" y="444" on="1"/>
        <pt x="107" y="444" on="1"/>
        <pt x="167" y="369" on="1"/>
        <pt x="227" y="294" on="1"/>
        <pt x="254" y="328" on="0"/>
        <pt x="286" y="369" on="1"/>
        <pt x="344" y="444" on="1"/>
        <pt x="393" y="444" on="1"/>
        <pt x="442" y="443" on="1"/>
        <pt x="439" y="437" on="0"/>
        <pt x="299" y="268" on="1"/>
        <pt x="267" y="229" on="1"/>
        <pt x="353" y="127" on="1"/>
        <pt x="374" y="102" on="0"/>
        <pt x="420" y="48" on="0"/>
        <pt x="449" y="14" on="0"/>
        <pt x="450" y="12" on="1"/>
        <pt x="460" y="0" on="1"/>
        <pt x="359" y="0" on="1"/>
        <pt x="294" y="88" on="1"/>
        <pt x="280" y="107" on="0"/>
        <pt x="244" y="156" on="0"/>
        <pt x="236" y="166" on="1"/>
        <pt x="227" y="177" on="1"/>
        <pt x="198" y="137" on="0"/>
        <pt x="163" y="88" on="1"/>
        <pt x="100" y="0" on="1"/>
        <pt x="0" y="0" on="1"/>
        <pt x="187" y="226" on="0"/>
      </contour>
    </TTGlyph>
    <TTGlyph name="y" xMin="14" yMin="-204" xMax="446" yMax="444">
      <contour>
        <pt x="14" y="443" on="1"/>
        <pt x="14" y="444" on="0"/>
        <pt x="61" y="444" on="1"/>
        <pt x="109" y="444" on="1"/>
        <pt x="122" y="411" on="1"/>
        <pt x="230" y="155" on="0"/>
        <pt x="236" y="75" on="1"/>
        <pt x="237" y="65" on="1"/>
        <pt x="237" y="74" on="1"/>
        <pt x="245" y="161" on="0"/>
        <pt x="348" y="424" on="1"/>
        <pt x="356" y="444" on="1"/>
        <pt x="401" y="444" on="1"/>
        <pt x="446" y="444" on="0"/>
        <pt x="446" y="443" on="1"/>
        <pt x="396" y="313" on="1"/>
        <pt x="345" y="183" on="0"/>
        <pt x="240" y="-85" on="0"/>
        <pt x="236" y="-93" on="1"/>
        <pt x="209" y="-160" on="0"/>
        <pt x="173" y="-187" on="1"/>
        <pt x="149" y="-204" on="0"/>
        <pt x="113" y="-204" on="1"/>
        <pt x="88" y="-204" on="0"/>
        <pt x="78" y="-203" on="1"/>
        <pt x="72" y="-202" on="0"/>
        <pt x="55" y="-199" on="0"/>
        <pt x="49" y="-198" on="1"/>
        <pt x="43" y="-197" on="1"/>
        <pt x="43" y="-196" on="0"/>
        <pt x="36" y="-118" on="0"/>
        <pt x="36" y="-117" on="1"/>
        <pt x="48" y="-121" on="1"/>
        <pt x="79" y="-133" on="0"/>
        <pt x="114" y="-133" on="1"/>
        <pt x="127" y="-133" on="0"/>
        <pt x="133" y="-130" on="1"/>
        <pt x="148" y="-122" on="0"/>
        <pt x="163" y="-94" on="1"/>
        <pt x="169" y="-82" on="0"/>
        <pt x="200" y="-1" on="0"/>
        <pt x="200" y="1" on="1"/>
        <pt x="188" y="29" on="1"/>
        <pt x="176" y="57" on="0"/>
        <pt x="128" y="173" on="0"/>
        <pt x="86" y="273" on="0"/>
        <pt x="37" y="388" on="0"/>
        <pt x="26" y="416" on="1"/>
      </contour>
    </TTGlyph>
    <TTGlyph name="z" xMin="28" yMin="0" xMax="402" yMax="444">
      <contour>
        <pt x="42" y="370" on="1"/>
        <pt x="42" y="444" on="1"/>
        <pt x="400" y="444" on="1"/>
        <pt x="400" y="395" on="1"/>
        <pt x="290" y="252" on="1"/>
        <pt x="188" y="118" on="0"/>
        <pt x="168" y="92" on="1"/>
        <pt x="156" y="76" on="1"/>
        <pt x="279" y="77" on="1"/>
        <pt x="402" y="77" on="1"/>
        <pt x="402" y="0" on="1"/>
        <pt x="28" y="0" on="1"/>
        <pt x="28" y="51" on="1"/>
        <pt x="144" y="205" on="0"/>
        <pt x="273" y="371" on="1"/>
        <pt x="157" y="370" on="1"/>
      </contour>
    </TTGlyph>
    <TTGlyph name="zero" xMin="39" yMin="-22" xMax="460" yMax="678">
      <contour>
        <pt x="117" y="621" on="1"/>
        <pt x="174" y="678" on="0"/>
        <pt x="247" y="678" on="1"/>
        <pt x="306" y="678" on="0"/>
        <pt x="351" y="647" on="1"/>
        <pt x="396" y="617" on="0"/>
        <pt x="424" y="557" on="1"/>
        <pt x="460" y="470" on="0"/>
        <pt x="460" y="328" on="1"/>
        <pt x="460" y="114" on="0"/>
        <pt x="383" y="34" on="1"/>
        <pt x="327" y="-22" on="0"/>
        <pt x="249" y="-22" on="1"/>
        <pt x="147" y="-22" on="0"/>
        <pt x="91" y="67" on="1"/>
        <pt x="39" y="154" on="0"/>
        <pt x="39" y="316" on="1"/>
        <pt x="39" y="380" on="0"/>
        <pt x="42" y="414" on="1"/>
        <pt x="55" y="557" on="0"/>
      </contour>
      <contour>
        <pt x="273" y="599" on="1"/>
        <pt x="267" y="601" on="0"/>
        <pt x="250" y="601" on="1"/>
        <pt x="186" y="601" on="0"/>
        <pt x="158" y="539" on="1"/>
        <pt x="132" y="481" on="0"/>
        <pt x="132" y="340" on="1"/>
        <pt x="132" y="203" on="0"/>
        <pt x="152" y="141" on="1"/>
        <pt x="171" y="83" on="0"/>
        <pt x="213" y="63" on="1"/>
        <pt x="229" y="55" on="0"/>
        <pt x="250" y="55" on="1"/>
        <pt x="270" y="55" on="0"/>
        <pt x="287" y="63" on="1"/>
        <pt x="338" y="89" on="0"/>
        <pt x="367" y="222" on="0"/>
        <pt x="367" y="340" on="1"/>
        <pt x="367" y="481" on="0"/>
        <pt x="341" y="539" on="1"/>
        <pt x="318" y="588" on="0"/>
      </contour>
    </TTGlyph>
</ttFont>
